<?xml version="1.0" encoding="UTF-8" standalone="no"?>
<!-- Created with Inkscape (http://www.inkscape.org/) -->

<svg
   xmlns:dc="http://purl.org/dc/elements/1.1/"
   xmlns:cc="http://creativecommons.org/ns#"
   xmlns:rdf="http://www.w3.org/1999/02/22-rdf-syntax-ns#"
   xmlns:svg="http://www.w3.org/2000/svg"
   xmlns="http://www.w3.org/2000/svg"
   xmlns:sodipodi="http://sodipodi.sourceforge.net/DTD/sodipodi-0.dtd"
   xmlns:inkscape="http://www.inkscape.org/namespaces/inkscape"
   width="44.999996"
   height="380"
   viewBox="0 0 11.906252 100.54167"
   version="1.1"
   id="svg8"
   inkscape:version="0.92.3 (2405546, 2018-03-11)"
   sodipodi:docname="Button_background.svg">
  <defs
     id="defs2" />
  <sodipodi:namedview
     id="base"
     pagecolor="#ffffff"
     bordercolor="#666666"
     borderopacity="1.0"
     inkscape:pageopacity="0.0"
     inkscape:pageshadow="2"
     inkscape:zoom="2.8"
     inkscape:cx="-22.650909"
     inkscape:cy="292.25188"
     inkscape:document-units="px"
     inkscape:current-layer="layer1"
     showgrid="true"
     units="px"
     inkscape:snap-bbox="true"
     inkscape:snap-page="true"
     inkscape:bbox-nodes="true"
     inkscape:snap-bbox-edge-midpoints="true"
     inkscape:window-width="1055"
     inkscape:window-height="924"
     inkscape:window-x="30"
     inkscape:window-y="465"
     inkscape:window-maximized="0"
     inkscape:snap-text-baseline="true"
     showguides="true"
     inkscape:guide-bbox="true"
     inkscape:measure-start="0,210"
     inkscape:measure-end="7.5,210"
     fit-margin-top="0"
     fit-margin-left="0"
     fit-margin-right="0"
     fit-margin-bottom="0"
     inkscape:object-paths="true"
     inkscape:snap-smooth-nodes="true"
     inkscape:bbox-paths="true"
     inkscape:snap-nodes="false">
    <inkscape:grid
       type="xygrid"
       id="grid849"
       originx="0"
       originy="0"
       spacingx="0.13229169" />
    <sodipodi:guide
       position="5.9531261,17.197936"
       orientation="0,1"
       id="guide900"
       inkscape:locked="false" />
    <sodipodi:guide
       position="1.9843755,21.166687"
       orientation="0.70710678,0.70710678"
       id="guide902"
       inkscape:locked="false" />
    <sodipodi:guide
       position="9.921877,21.166687"
       orientation="-0.70710678,0.70710678"
       id="guide904"
       inkscape:locked="false" />
    <sodipodi:guide
       position="7.276043,21.166686"
       orientation="0,1"
       id="guide877"
       inkscape:locked="false" />
    <sodipodi:guide
       position="5.9531262,15.610435"
       orientation="1,0"
       id="guide922"
       inkscape:locked="false" />
    <sodipodi:guide
       position="-2e-08,11.24481"
       orientation="0,1"
       id="guide924"
       inkscape:locked="false" />
    <inkscape:grid
       type="xygrid"
       id="grid926"
       enabled="false"
       originx="0.13229169"
       originy="9.0000004e-06" />
    <sodipodi:guide
       position="9.1281097,20.37292"
       orientation="1,0"
       id="guide928"
       inkscape:locked="false" />
    <sodipodi:guide
       position="9.2604203,20.372917"
       orientation="0,1"
       id="guide930"
       inkscape:locked="false" />
    <sodipodi:guide
       position="5.2916682,14.022917"
       orientation="0,1"
       id="guide932"
       inkscape:locked="false" />
    <sodipodi:guide
       position="10.583335,37.041672"
       orientation="0,1"
       id="guide936"
       inkscape:locked="false" />
    <sodipodi:guide
       position="11.244794,36.247922"
       orientation="0,1"
       id="guide938"
       inkscape:locked="false" />
    <sodipodi:guide
       position="1.9843754,37.041672"
       orientation="0.70710678,0.70710678"
       id="guide940"
       inkscape:locked="false" />
    <sodipodi:guide
       position="9.1281097,36.247922"
       orientation="-0.70710678,0.70710678"
       id="guide942"
       inkscape:locked="false" />
    <sodipodi:guide
       position="10.583336,52.916668"
       orientation="0,1"
       id="guide946"
       inkscape:locked="false" />
    <sodipodi:guide
       position="2.7781255,35.718755"
       orientation="1,0"
       id="guide948"
       inkscape:locked="false" />
    <sodipodi:guide
       position="13.229169,60.854175"
       orientation="0,1"
       id="guide952"
       inkscape:locked="false" />
    <sodipodi:guide
       position="17.19792,74.083344"
       orientation="0,1"
       id="guide954"
       inkscape:locked="false" />
    <sodipodi:guide
       position="14.552086,70.114593"
       orientation="0,1"
       id="guide956"
       inkscape:locked="false" />
  </sodipodi:namedview>
  <metadata
     id="metadata5">
    <rdf:RDF>
      <cc:Work
         rdf:about="">
        <dc:format>image/svg+xml</dc:format>
        <dc:type
           rdf:resource="http://purl.org/dc/dcmitype/StillImage" />
        <dc:title></dc:title>
      </cc:Work>
    </rdf:RDF>
  </metadata>
  <g
     inkscape:label="background"
     inkscape:groupmode="layer"
     id="layer1"
     transform="translate(-1.984375,-196.45834)"
     style="display:inline">
    <path
       style="opacity:1;vector-effect:none;fill:#fafafa;fill-opacity:1;fill-rule:evenodd;stroke:none;stroke-width:0.48607072;stroke-linecap:butt;stroke-linejoin:round;stroke-miterlimit:4;stroke-dasharray:none;stroke-dashoffset:0;stroke-opacity:1;paint-order:normal"
       d="m 1.984375,196.45833 11.906251,1e-5 v 100.54168 l -11.906251,-1e-5 z"
       id="rect817"
       inkscape:connector-curvature="0"
       sodipodi:nodetypes="ccccc" />
    <rect
       style="opacity:1;fill:#232323;fill-opacity:1;fill-rule:evenodd;stroke:none;stroke-width:1.05833328;stroke-linecap:butt;stroke-linejoin:bevel;stroke-miterlimit:4;stroke-dasharray:none;stroke-dashoffset:0;stroke-opacity:1;paint-order:markers stroke fill"
       id="rect875"
       width="7.9374995"
       height="13.229129"
       x="3.9687502"
       y="270.54169"
       rx="0.79374683"
       ry="0.79374683" />
    <rect
       ry="0.79374683"
       rx="0.79374683"
       y="254.66672"
       x="3.9687502"
       height="13.229129"
       width="7.9374995"
       id="rect934"
       style="opacity:1;fill:#232323;fill-opacity:1;fill-rule:evenodd;stroke:none;stroke-width:1.05833328;stroke-linecap:butt;stroke-linejoin:bevel;stroke-miterlimit:4;stroke-dasharray:none;stroke-dashoffset:0;stroke-opacity:1;paint-order:markers stroke fill" />
    <rect
       style="opacity:1;fill:#232323;fill-opacity:1;fill-rule:evenodd;stroke:none;stroke-width:1.05833328;stroke-linecap:butt;stroke-linejoin:bevel;stroke-miterlimit:4;stroke-dasharray:none;stroke-dashoffset:0;stroke-opacity:1;paint-order:markers stroke fill"
       id="rect944"
       width="7.9374995"
       height="13.229129"
       x="3.9687502"
       y="238.7917"
       rx="0.79374683"
       ry="0.79374683" />
    <rect
       ry="0.79374683"
       rx="0.79374683"
       y="238.7917"
       x="3.9687502"
       height="13.229129"
       width="7.9374995"
       id="rect888"
       style="opacity:1;fill:#232323;fill-opacity:1;fill-rule:evenodd;stroke:none;stroke-width:1.05833328;stroke-linecap:butt;stroke-linejoin:bevel;stroke-miterlimit:4;stroke-dasharray:none;stroke-dashoffset:0;stroke-opacity:1;paint-order:markers stroke fill" />
    <rect
       ry="0.79374683"
       rx="0.79374683"
       y="207.04172"
       x="3.9687502"
       height="13.229129"
       width="7.9374995"
       id="rect892"
       style="opacity:1;fill:#232323;fill-opacity:1;fill-rule:evenodd;stroke:none;stroke-width:1.05833328;stroke-linecap:butt;stroke-linejoin:bevel;stroke-miterlimit:4;stroke-dasharray:none;stroke-dashoffset:0;stroke-opacity:1;paint-order:markers stroke fill" />
  </g>
  <g
     inkscape:groupmode="layer"
     id="layer4"
     inkscape:label="guides"
     sodipodi:insensitive="true"
     style="display:none">
    <rect
       transform="translate(-1.984375,-196.45834)"
       ry="0.79374683"
       rx="0.79374683"
       y="221.5938"
       x="3.9687502"
       height="13.229129"
       width="7.9374995"
       id="rect950"
       style="display:inline;opacity:1;fill:#ef0000;fill-opacity:1;fill-rule:evenodd;stroke:none;stroke-width:1.05833328;stroke-linecap:butt;stroke-linejoin:bevel;stroke-miterlimit:4;stroke-dasharray:none;stroke-dashoffset:0;stroke-opacity:1;paint-order:markers stroke fill" />
  </g>
  <g
     inkscape:groupmode="layer"
     id="layer3"
     inkscape:label="text-paths"
     style="display:inline"
     transform="translate(-1.984375,-1.4223331e-5)">
    <g
       aria-label="btn"
       style="font-style:normal;font-variant:normal;font-weight:normal;font-stretch:normal;font-size:7.14057255px;line-height:125%;font-family:sans-serif;-inkscape-font-specification:sans-serif;text-align:center;letter-spacing:0px;word-spacing:0px;text-anchor:middle;fill:#000000;fill-opacity:1;stroke:none;stroke-width:0.35277766px;stroke-linecap:butt;stroke-linejoin:miter;stroke-opacity:1"
       id="text866"
       transform="matrix(0.7500002,0,0,0.7500002,1.9843734,22.094634)">
      <path
         d="M 3.8383094,90.767629 H 2.710099 v 4.641372 l -0.064265,1.071086 h 1.0068207 l 0.078546,-0.456996 c 0.2142172,0.321325 0.5498241,0.549824 1.0782265,0.549824 1.035383,0 1.4066928,-0.764042 1.4066928,-1.856549 v -0.257061 c 0,-1.092507 -0.3713098,-1.856549 -1.4066928,-1.856549 -0.4498561,0 -0.7569007,0.164234 -0.9711179,0.414154 z m 0,3.163274 c 0.092827,-0.135671 0.3070447,-0.357029 0.6426516,-0.357029 0.4355749,0 0.6069486,0.328467 0.6069486,0.885431 v 0.257061 c 0,0.556965 -0.1713737,0.885431 -0.6069486,0.885431 -0.3356069,0 -0.5498241,-0.221358 -0.6426516,-0.357029 z"
         style="font-style:normal;font-variant:normal;font-weight:normal;font-stretch:normal;font-family:'Cooper Hewitt';-inkscape-font-specification:'Cooper Hewitt';stroke-width:0.35277766px"
         id="path871"
         inkscape:connector-curvature="0" />
      <path
         d="M 8.1904883,92.695584 V 91.624498 H 7.0622779 v 1.071086 H 6.4838915 v 0.985399 h 0.5783864 v 1.485239 c 0,1.042524 0.5712458,1.406693 1.4209739,1.406693 0.3427475,0 0.5426835,-0.05712 0.6069487,-0.09283 v -0.928274 c -0.042844,0.02142 -0.2213578,0.04998 -0.3427475,0.04998 -0.3427475,0 -0.5569647,-0.09283 -0.5569647,-0.556965 v -1.363849 h 0.9711179 v -0.985399 z"
         style="font-style:normal;font-variant:normal;font-weight:normal;font-stretch:normal;font-family:'Cooper Hewitt';-inkscape-font-specification:'Cooper Hewitt';stroke-width:0.35277766px"
         id="path873"
         inkscape:connector-curvature="0" />
      <path
         d="m 13.229166,96.480087 v -2.563465 c 0,-0.685495 -0.314185,-1.313866 -1.171054,-1.313866 -0.585527,0 -0.978258,0.24278 -1.213897,0.578387 l -0.08569,-0.485559 H 9.7517073 l 0.064265,1.071086 v 2.713417 h 1.1282107 v -2.549184 c 0.08569,-0.135671 0.307045,-0.357029 0.664073,-0.357029 0.385591,0 0.49984,0.257061 0.49984,0.528403 v 2.37781 z"
         style="font-style:normal;font-variant:normal;font-weight:normal;font-stretch:normal;font-family:'Cooper Hewitt';-inkscape-font-specification:'Cooper Hewitt';stroke-width:0.35277766px"
         id="path875"
         inkscape:connector-curvature="0" />
    </g>
    <g
       aria-label="gat"
       style="font-style:normal;font-variant:normal;font-weight:normal;font-stretch:normal;font-size:10.58333302px;line-height:125%;font-family:'Cooper Hewitt';-inkscape-font-specification:'Cooper Hewitt, weight=715';font-variant-ligatures:normal;font-variant-caps:normal;font-variant-numeric:normal;font-feature-settings:normal;text-align:center;letter-spacing:0px;word-spacing:0px;writing-mode:lr-tb;text-anchor:middle;display:inline;fill:#e1e1e1;fill-opacity:1;stroke:none;stroke-width:0.3831467px;stroke-linecap:butt;stroke-linejoin:miter;stroke-opacity:1"
       id="text871"
       transform="matrix(0.69055355,0,0,0.69055355,2.4437827,10.605584)">
      <path
         d="m 6.1165493,75.411894 v -0.553155 q -0.2878667,0.395111 -0.8466667,0.395111 -0.5757333,0 -0.8636,-0.383822 -0.2822222,-0.389467 -0.2822222,-1.004711 v -0.124178 q 0,-0.6096 0.2822222,-0.999067 0.2878667,-0.389466 0.8636,-0.389466 0.6039556,0 0.8918223,0.462844 l 0.056444,-0.400756 h 0.3273778 l -0.033867,0.846667 v 2.173111 q 0,0.536222 -0.2822222,0.846667 -0.2822222,0.316089 -0.8918222,0.316089 -0.6096,0 -0.8861778,-0.310445 -0.2709334,-0.3048 -0.2709334,-0.807155 v -0.07338 h 0.3781778 q 0,0.434622 0.1806222,0.637822 0.1806223,0.208845 0.5926667,0.208845 0.4176889,0 0.5983111,-0.208845 0.1862667,-0.208844 0.1862667,-0.632178 z m 0,-2.240844 q -0.2935111,-0.462844 -0.762,-0.462844 -0.4064,0 -0.6208889,0.282222 -0.2088444,0.276578 -0.2088444,0.750711 v 0.124178 q 0,0.485422 0.2088444,0.762 0.2144889,0.270933 0.6208889,0.270933 0.4684889,0 0.762,-0.4572 z"
         style="font-style:normal;font-variant:normal;font-weight:normal;font-stretch:normal;font-size:5.64444447px;font-family:'Cooper Hewitt';-inkscape-font-specification:'Cooper Hewitt, Normal';font-variant-ligatures:normal;font-variant-caps:normal;font-variant-numeric:normal;font-feature-settings:normal;text-align:center;writing-mode:lr-tb;text-anchor:middle;fill:#e1e1e1;fill-opacity:1;stroke-width:0.3831467px"
         id="path876"
         inkscape:connector-curvature="0" />
      <path
         d="m 9.1143666,75.40625 -0.062089,-0.417689 q -0.3668889,0.479778 -1.0555112,0.479778 -0.4007555,0 -0.6321777,-0.225778 -0.2314223,-0.225778 -0.2314223,-0.592667 v -0.05644 q 0,-0.440267 0.2652889,-0.637822 0.2709334,-0.2032 0.7112,-0.270934 l 0.9031112,-0.141111 v -0.07902 q 0,-0.400755 -0.1580445,-0.587022 -0.1524,-0.191911 -0.5362222,-0.191911 -0.3894667,0 -0.5418667,0.191911 -0.1524,0.191911 -0.1524,0.524933 H 7.2460554 v -0.0508 q 0,-0.186266 0.045156,-0.349955 0.0508,-0.163689 0.1580444,-0.316089 0.1128889,-0.1524 0.3330223,-0.242711 0.2257777,-0.09031 0.5418666,-0.09031 0.5870223,0 0.8353778,0.287866 0.2483556,0.287867 0.2483556,0.824089 v 1.095022 l 0.033867,0.846667 z M 8.0983665,75.124028 q 0.6265334,0 0.9144001,-0.474134 V 73.83145 l -0.8692445,0.141111 q -0.6152444,0.107245 -0.6152444,0.592667 v 0.0508 q 0,0.214489 0.1411111,0.361244 0.1467555,0.146756 0.4289777,0.146756 z"
         style="font-style:normal;font-variant:normal;font-weight:normal;font-stretch:normal;font-size:5.64444447px;font-family:'Cooper Hewitt';-inkscape-font-specification:'Cooper Hewitt, Normal';font-variant-ligatures:normal;font-variant-caps:normal;font-variant-numeric:normal;font-feature-settings:normal;text-align:center;writing-mode:lr-tb;text-anchor:middle;fill:#e1e1e1;fill-opacity:1;stroke-width:0.3831467px"
         id="path878"
         inkscape:connector-curvature="0" />
      <path
         d="m 10.811757,72.414694 h 0.953911 v 0.3556 h -0.953911 v 1.755423 q 0,0.338666 0.135467,0.462844 0.141111,0.124178 0.440266,0.124178 0.220134,0 0.321734,-0.0508 v 0.344311 q -0.163689,0.06209 -0.417689,0.06209 -0.4064,0 -0.643467,-0.214489 -0.231422,-0.214489 -0.231422,-0.677333 V 72.770294 H 9.9425125 v -0.3556 h 0.4741335 v -0.846666 h 0.395111 z"
         style="font-style:normal;font-variant:normal;font-weight:normal;font-stretch:normal;font-size:5.64444447px;font-family:'Cooper Hewitt';-inkscape-font-specification:'Cooper Hewitt, Normal';font-variant-ligatures:normal;font-variant-caps:normal;font-variant-numeric:normal;font-feature-settings:normal;text-align:center;writing-mode:lr-tb;text-anchor:middle;fill:#e1e1e1;fill-opacity:1;stroke-width:0.3831467px"
         id="path880"
         inkscape:connector-curvature="0" />
    </g>
    <g
       aria-label="trig"
       style="font-style:normal;font-variant:normal;font-weight:normal;font-stretch:normal;font-size:3.89818335px;line-height:125%;font-family:'Cooper Hewitt';-inkscape-font-specification:'Cooper Hewitt, Normal';font-variant-ligatures:normal;font-variant-caps:normal;font-variant-numeric:normal;font-feature-settings:normal;text-align:center;letter-spacing:0px;word-spacing:0px;writing-mode:lr-tb;text-anchor:middle;display:inline;fill:#e1e1e1;fill-opacity:1;stroke:none;stroke-width:0.26458332px;stroke-linecap:butt;stroke-linejoin:miter;stroke-opacity:1"
       id="text885"
       transform="translate(0,8.437918)">
      <path
         d="m 5.7578678,36.298549 h 0.658793 v 0.245585 h -0.658793 v 1.212335 q 0,0.233891 0.093556,0.319651 0.097455,0.08576 0.3040583,0.08576 0.1520292,0 0.2221965,-0.03508 v 0.237789 q -0.1130474,0.04288 -0.2884656,0.04288 -0.2806692,0 -0.4443929,-0.148131 Q 5.484995,38.111204 5.484995,37.791553 V 36.544134 H 5.1575476 V 36.298549 H 5.484995 v -0.584728 h 0.2728728 z"
         style="font-style:normal;font-variant:normal;font-weight:normal;font-stretch:normal;font-size:3.89818335px;font-family:'Cooper Hewitt';-inkscape-font-specification:'Cooper Hewitt, Normal';font-variant-ligatures:normal;font-variant-caps:normal;font-variant-numeric:normal;font-feature-settings:normal;text-align:center;writing-mode:lr-tb;text-anchor:middle;fill:#e1e1e1;fill-opacity:1;stroke-width:0.26458332px"
         id="path887"
         inkscape:connector-curvature="0" />
      <path
         d="m 7.6733985,36.255669 q 0.011695,0 0.023389,0.0039 0.015593,0 0.023389,0 h 0.011695 v 0.261178 h -0.054575 q -0.3547347,0 -0.5496439,0.311855 v 1.531986 H 6.85478 v -1.48131 L 6.831391,36.298551 h 0.2260946 l 0.038982,0.272873 q 0.2027055,-0.315753 0.5769311,-0.315753 z"
         style="font-style:normal;font-variant:normal;font-weight:normal;font-stretch:normal;font-size:3.89818335px;font-family:'Cooper Hewitt';-inkscape-font-specification:'Cooper Hewitt, Normal';font-variant-ligatures:normal;font-variant-caps:normal;font-variant-numeric:normal;font-feature-settings:normal;text-align:center;writing-mode:lr-tb;text-anchor:middle;fill:#e1e1e1;fill-opacity:1;stroke-width:0.26458332px"
         id="path889"
         inkscape:connector-curvature="0" />
      <path
         d="m 8.1839996,38.364586 v -2.066037 h 0.2728729 v 2.066037 z m 0.3118547,-2.904147 v 0.350837 H 8.1450178 v -0.350837 z"
         style="font-style:normal;font-variant:normal;font-weight:normal;font-stretch:normal;font-size:3.89818335px;font-family:'Cooper Hewitt';-inkscape-font-specification:'Cooper Hewitt, Normal';font-variant-ligatures:normal;font-variant-caps:normal;font-variant-numeric:normal;font-feature-settings:normal;text-align:center;writing-mode:lr-tb;text-anchor:middle;fill:#e1e1e1;fill-opacity:1;stroke-width:0.26458332px"
         id="path891"
         inkscape:connector-curvature="0" />
      <path
         d="m 10.311616,38.368484 v -0.382022 q -0.198807,0.272873 -0.5847276,0.272873 -0.3976147,0 -0.596422,-0.265077 -0.1949092,-0.268974 -0.1949092,-0.693876 v -0.08576 q 0,-0.421004 0.1949092,-0.689979 0.1988073,-0.268974 0.596422,-0.268974 0.4171056,0 0.6159126,0.319651 l 0.03898,-0.276771 h 0.226095 l -0.02339,0.584727 v 1.500801 q 0,0.370327 -0.194909,0.584727 -0.19491,0.218299 -0.6159134,0.218299 -0.4210038,0 -0.6120147,-0.214401 -0.1871128,-0.210501 -0.1871128,-0.55744 v -0.05068 h 0.2611782 q 0,0.30016 0.1247419,0.440495 0.1247419,0.144232 0.4093093,0.144232 0.2884655,0 0.4132075,-0.144232 0.12864,-0.144233 0.12864,-0.436597 z m 0,-1.547579 q -0.202706,-0.319651 -0.5262548,-0.319651 -0.2806692,0 -0.4288002,0.194909 -0.1442328,0.191011 -0.1442328,0.518459 v 0.08576 q 0,0.335244 0.1442328,0.526255 0.148131,0.187112 0.4288002,0.187112 0.3235488,0 0.5262548,-0.315752 z"
         style="font-style:normal;font-variant:normal;font-weight:normal;font-stretch:normal;font-size:3.89818335px;font-family:'Cooper Hewitt';-inkscape-font-specification:'Cooper Hewitt, Normal';font-variant-ligatures:normal;font-variant-caps:normal;font-variant-numeric:normal;font-feature-settings:normal;text-align:center;writing-mode:lr-tb;text-anchor:middle;fill:#e1e1e1;fill-opacity:1;stroke-width:0.26458332px"
         id="path893"
         inkscape:connector-curvature="0" />
    </g>
    <g
       aria-label="tgl"
       style="font-style:normal;font-variant:normal;font-weight:normal;font-stretch:normal;font-size:7.30835819px;line-height:125%;font-family:'Cooper Hewitt';-inkscape-font-specification:'Cooper Hewitt, weight=715';font-variant-ligatures:normal;font-variant-caps:normal;font-variant-numeric:normal;font-feature-settings:normal;text-align:center;letter-spacing:0px;word-spacing:0px;writing-mode:lr-tb;text-anchor:middle;display:inline;fill:#e1e1e1;fill-opacity:1;stroke:none;stroke-width:0.26458332px;stroke-linecap:butt;stroke-linejoin:miter;stroke-opacity:1"
       id="text907"
       transform="translate(0,3.118258)">
      <path
         d="m 6.4089878,73.340421 h 0.6587267 v 0.245561 H 6.4089878 v 1.212213 q 0,0.233867 0.093547,0.319618 0.097445,0.08575 0.3040277,0.08575 0.1520138,0 0.2221741,-0.03508 v 0.237765 q -0.113036,0.04288 -0.2884366,0.04288 -0.2806409,0 -0.4443482,-0.148116 Q 6.1361424,75.152894 6.1361424,74.833275 V 73.585982 H 5.8087279 v -0.245561 h 0.3274145 v -0.584669 h 0.2728454 z"
         style="font-style:normal;font-variant:normal;font-weight:normal;font-stretch:normal;font-size:3.89779115px;font-family:'Cooper Hewitt';-inkscape-font-specification:'Cooper Hewitt, Normal';font-variant-ligatures:normal;font-variant-caps:normal;font-variant-numeric:normal;font-feature-settings:normal;text-align:center;writing-mode:lr-tb;text-anchor:middle;fill:#e1e1e1;fill-opacity:1;stroke-width:0.26458332px"
         id="path909"
         inkscape:connector-curvature="0" />
      <path
         d="m 8.8154475,75.410148 v -0.381984 q -0.1987874,0.272846 -0.5846687,0.272846 -0.3975747,0 -0.596362,-0.26505 -0.1948896,-0.268948 -0.1948896,-0.693807 v -0.08575 q 0,-0.420962 0.1948896,-0.689909 0.1987873,-0.268948 0.596362,-0.268948 0.4170637,0 0.615851,0.319619 l 0.038978,-0.276743 h 0.2260719 l -0.023387,0.584668 v 1.50065 q 0,0.37029 -0.1948896,0.584669 -0.1948896,0.218276 -0.615851,0.218276 -0.4209615,0 -0.6119532,-0.214379 -0.187094,-0.21048 -0.187094,-0.557384 v -0.05067 h 0.261152 q 0,0.30013 0.1247293,0.44045 0.1247293,0.144219 0.4092681,0.144219 0.2884365,0 0.4131659,-0.144219 0.1286271,-0.144218 0.1286271,-0.436552 z m 0,-1.547423 q -0.2026852,-0.319619 -0.5262018,-0.319619 -0.280641,0 -0.4287571,0.194889 -0.1442182,0.190992 -0.1442182,0.518407 v 0.08575 q 0,0.33521 0.1442182,0.526202 0.1481161,0.187094 0.4287571,0.187094 0.3235166,0 0.5262018,-0.315721 z"
         style="font-style:normal;font-variant:normal;font-weight:normal;font-stretch:normal;font-size:3.89779115px;font-family:'Cooper Hewitt';-inkscape-font-specification:'Cooper Hewitt, Normal';font-variant-ligatures:normal;font-variant-caps:normal;font-variant-numeric:normal;font-feature-settings:normal;text-align:center;writing-mode:lr-tb;text-anchor:middle;fill:#e1e1e1;fill-opacity:1;stroke-width:0.26458332px"
         id="path911"
         inkscape:connector-curvature="0" />
      <path
         d="M 9.6266143,75.40625 V 72.288017 H 9.8994596 V 75.40625 Z"
         style="font-style:normal;font-variant:normal;font-weight:normal;font-stretch:normal;font-size:3.89779115px;font-family:'Cooper Hewitt';-inkscape-font-specification:'Cooper Hewitt, Normal';font-variant-ligatures:normal;font-variant-caps:normal;font-variant-numeric:normal;font-feature-settings:normal;text-align:center;writing-mode:lr-tb;text-anchor:middle;fill:#e1e1e1;fill-opacity:1;stroke-width:0.26458332px"
         id="path913"
         inkscape:connector-curvature="0" />
    </g>
    <g
       aria-label="trig in"
       style="font-style:normal;font-variant:normal;font-weight:normal;font-stretch:normal;font-size:2.76220918px;line-height:125%;font-family:'Cooper Hewitt';-inkscape-font-specification:'Cooper Hewitt, Normal';font-variant-ligatures:normal;font-variant-caps:normal;font-variant-numeric:normal;font-feature-settings:normal;text-align:center;letter-spacing:0px;word-spacing:0px;writing-mode:lr-tb;text-anchor:middle;display:inline;fill:#232323;fill-opacity:1;stroke:none;stroke-width:0.26458332px;stroke-linecap:butt;stroke-linejoin:miter;stroke-opacity:1"
       id="text869"
       transform="translate(-1.73e-5,1.3203371)">
      <path
         d="m 5.0734923,27.057388 h 0.4668133 v 0.174019 H 5.0734923 v 0.859047 q 0,0.165732 0.066293,0.226501 0.069055,0.06077 0.2154523,0.06077 0.1077262,0 0.1574459,-0.02486 v 0.168494 q -0.080104,0.03038 -0.2044035,0.03038 -0.198879,0 -0.3148918,-0.104964 -0.1132506,-0.10496 -0.1132506,-0.331461 V 27.231407 H 4.648112 v -0.174019 h 0.2320256 v -0.414332 h 0.1933547 z"
         style="font-style:normal;font-variant:normal;font-weight:normal;font-stretch:normal;font-size:2.76220918px;font-family:'Cooper Hewitt';-inkscape-font-specification:'Cooper Hewitt, Normal';font-variant-ligatures:normal;font-variant-caps:normal;font-variant-numeric:normal;font-feature-settings:normal;text-align:center;writing-mode:lr-tb;text-anchor:middle;fill:#232323;fill-opacity:1;stroke-width:0.26458332px"
         id="path874"
         inkscape:connector-curvature="0" />
      <path
         d="m 6.4308159,27.027003 q 0.00829,0 0.016573,0.0028 0.011049,0 0.016573,0 h 0.00829 v 0.185068 h -0.038671 q -0.251361,0 -0.3894715,0.220976 v 1.085548 H 5.850752 V 27.471756 L 5.834179,27.057425 h 0.1602082 l 0.027622,0.193354 Q 6.165644,27.02704 6.4308161,27.02704 Z"
         style="font-style:normal;font-variant:normal;font-weight:normal;font-stretch:normal;font-size:2.76220918px;font-family:'Cooper Hewitt';-inkscape-font-specification:'Cooper Hewitt, Normal';font-variant-ligatures:normal;font-variant-caps:normal;font-variant-numeric:normal;font-feature-settings:normal;text-align:center;writing-mode:lr-tb;text-anchor:middle;fill:#232323;fill-opacity:1;stroke-width:0.26458332px"
         id="path877"
         inkscape:connector-curvature="0" />
      <path
         d="m 6.7926221,28.521358 v -1.46397 h 0.1933546 v 1.46397 z m 0.2209767,-2.057845 v 0.248598 H 6.765 v -0.248598 z"
         style="font-style:normal;font-variant:normal;font-weight:normal;font-stretch:normal;font-size:2.76220918px;font-family:'Cooper Hewitt';-inkscape-font-specification:'Cooper Hewitt, Normal';font-variant-ligatures:normal;font-variant-caps:normal;font-variant-numeric:normal;font-feature-settings:normal;text-align:center;writing-mode:lr-tb;text-anchor:middle;fill:#232323;fill-opacity:1;stroke-width:0.26458332px"
         id="path879"
         inkscape:connector-curvature="0" />
      <path
         d="m 8.3002272,28.524121 v -0.270697 q -0.1408727,0.193355 -0.4143314,0.193355 -0.2817453,0 -0.422618,-0.18783 -0.1381104,-0.190593 -0.1381104,-0.491674 v -0.06077 q 0,-0.298319 0.1381104,-0.488911 0.1408727,-0.190593 0.422618,-0.190593 0.2955564,0 0.4364291,0.226501 l 0.027622,-0.196116 H 8.510155 l -0.016573,0.414331 v 1.063451 q 0,0.262409 -0.1381104,0.414331 -0.1381105,0.154684 -0.4364291,0.154684 -0.2983186,0 -0.4336668,-0.151922 -0.132586,-0.149159 -0.132586,-0.394996 v -0.03591 h 0.185068 q 0,0.212691 0.088391,0.31213 0.088391,0.102202 0.2900319,0.102202 0.2044035,0 0.2927942,-0.102202 0.091153,-0.102202 0.091153,-0.309367 z m 0,-1.096597 Q 8.1565923,27.201023 7.927329,27.201023 q -0.1988791,0 -0.303843,0.13811 -0.1022018,0.135348 -0.1022018,0.367374 v 0.06077 q 0,0.23755 0.1022018,0.372899 0.1049639,0.132586 0.303843,0.132586 0.2292633,0 0.3728982,-0.223739 z"
         style="font-style:normal;font-variant:normal;font-weight:normal;font-stretch:normal;font-size:2.76220918px;font-family:'Cooper Hewitt';-inkscape-font-specification:'Cooper Hewitt, Normal';font-variant-ligatures:normal;font-variant-caps:normal;font-variant-numeric:normal;font-feature-settings:normal;text-align:center;writing-mode:lr-tb;text-anchor:middle;fill:#232323;fill-opacity:1;stroke-width:0.26458332px"
         id="path881"
         inkscape:connector-curvature="0" />
      <path
         d="m 9.425353,28.521358 v -1.46397 h 0.1933547 v 1.46397 z m 0.2209767,-2.057845 v 0.248598 H 9.3977309 v -0.248598 z"
         style="font-style:normal;font-variant:normal;font-weight:normal;font-stretch:normal;font-size:2.76220918px;font-family:'Cooper Hewitt';-inkscape-font-specification:'Cooper Hewitt, Normal';font-variant-ligatures:normal;font-variant-caps:normal;font-variant-numeric:normal;font-feature-settings:normal;text-align:center;writing-mode:lr-tb;text-anchor:middle;fill:#232323;fill-opacity:1;stroke-width:0.26458332px"
         id="path883"
         inkscape:connector-curvature="0" />
      <path
         d="m 11.112502,28.521358 h -0.193355 v -0.997157 q 0,-0.160208 -0.08563,-0.240312 -0.08287,-0.08287 -0.232026,-0.08287 -0.259648,0 -0.403282,0.226501 v 1.093834 H 10.004854 V 27.471715 L 9.988281,27.057384 h 0.160208 l 0.02762,0.207165 q 0.157446,-0.23755 0.491673,-0.23755 0.21269,0 0.328703,0.129824 0.116013,0.129824 0.116013,0.339752 z"
         style="font-style:normal;font-variant:normal;font-weight:normal;font-stretch:normal;font-size:2.76220918px;font-family:'Cooper Hewitt';-inkscape-font-specification:'Cooper Hewitt, Normal';font-variant-ligatures:normal;font-variant-caps:normal;font-variant-numeric:normal;font-feature-settings:normal;text-align:center;writing-mode:lr-tb;text-anchor:middle;fill:#232323;fill-opacity:1;stroke-width:0.26458332px"
         id="path885"
         inkscape:connector-curvature="0" />
    </g>
  </g>
  <g
     inkscape:groupmode="layer"
     id="layer2"
     inkscape:label="text"
     style="display:inline"
     transform="translate(-1.984375,-1.4223331e-5)">
    <text
       xml:space="preserve"
       style="font-style:normal;font-variant:normal;font-weight:bold;font-stretch:normal;font-size:5.33291245px;line-height:125%;font-family:'Cooper Hewitt';-inkscape-font-specification:'Cooper Hewitt, Bold';font-variant-ligatures:normal;font-variant-caps:normal;font-variant-numeric:normal;font-feature-settings:normal;text-align:center;letter-spacing:0px;word-spacing:0px;writing-mode:lr-tb;text-anchor:middle;fill:#000000;fill-opacity:1;stroke:none;stroke-width:0.26458332px;stroke-linecap:butt;stroke-linejoin:miter;stroke-opacity:1"
       x="7.933814"
       y="94.538681"
       id="text880"><tspan
         sodipodi:role="line"
         id="tspan878"
         x="7.933814"
         y="94.538681"
         style="font-style:normal;font-variant:normal;font-weight:bold;font-stretch:normal;font-size:5.33291245px;font-family:'Cooper Hewitt';-inkscape-font-specification:'Cooper Hewitt, Bold';font-variant-ligatures:normal;font-variant-caps:normal;font-variant-numeric:normal;font-feature-settings:normal;text-align:center;writing-mode:lr-tb;text-anchor:middle;stroke-width:0.26458332px">btn</tspan></text>
    <text
       xml:space="preserve"
       style="font-style:normal;font-variant:normal;font-weight:normal;font-stretch:normal;font-size:3.89818335px;line-height:125%;font-family:'Cooper Hewitt';-inkscape-font-specification:'Cooper Hewitt, Normal';font-variant-ligatures:normal;font-variant-caps:normal;font-variant-numeric:normal;font-feature-settings:normal;text-align:center;letter-spacing:0px;word-spacing:0px;writing-mode:lr-tb;text-anchor:middle;fill:#e1e1e1;fill-opacity:1;stroke:none;stroke-width:0.26458332px;stroke-linecap:butt;stroke-linejoin:miter;stroke-opacity:1"
       x="7.9375005"
       y="46.802505"
       id="text839"><tspan
         sodipodi:role="line"
         id="tspan837"
         x="7.9375005"
         y="46.802505"
         style="font-style:normal;font-variant:normal;font-weight:normal;font-stretch:normal;font-size:3.89818335px;font-family:'Cooper Hewitt';-inkscape-font-specification:'Cooper Hewitt, Normal';font-variant-ligatures:normal;font-variant-caps:normal;font-variant-numeric:normal;font-feature-settings:normal;text-align:center;writing-mode:lr-tb;text-anchor:middle;fill:#e1e1e1;fill-opacity:1;stroke-width:0.26458332px">trig</tspan></text>
    <text
       xml:space="preserve"
       style="font-style:normal;font-variant:normal;font-weight:normal;font-stretch:normal;font-size:7.30835819px;line-height:125%;font-family:'Cooper Hewitt';-inkscape-font-specification:'Cooper Hewitt, weight=715';font-variant-ligatures:normal;font-variant-caps:normal;font-variant-numeric:normal;font-feature-settings:normal;text-align:center;letter-spacing:0px;word-spacing:0px;writing-mode:lr-tb;text-anchor:middle;fill:#e1e1e1;fill-opacity:1;stroke:none;stroke-width:0.26458332px;stroke-linecap:butt;stroke-linejoin:miter;stroke-opacity:1"
       x="7.9250517"
       y="62.677639"
       id="text851"><tspan
         sodipodi:role="line"
         id="tspan849"
         x="7.9250517"
         y="62.677639"
         style="font-style:normal;font-variant:normal;font-weight:normal;font-stretch:normal;font-size:3.89779115px;font-family:'Cooper Hewitt';-inkscape-font-specification:'Cooper Hewitt, Normal';font-variant-ligatures:normal;font-variant-caps:normal;font-variant-numeric:normal;font-feature-settings:normal;text-align:center;writing-mode:lr-tb;text-anchor:middle;fill:#e1e1e1;fill-opacity:1;stroke-width:0.26458332px">gat</tspan></text>
    <text
       id="text903"
       y="78.524506"
       x="7.9375005"
       style="font-style:normal;font-variant:normal;font-weight:normal;font-stretch:normal;font-size:7.30835819px;line-height:125%;font-family:'Cooper Hewitt';-inkscape-font-specification:'Cooper Hewitt, weight=715';font-variant-ligatures:normal;font-variant-caps:normal;font-variant-numeric:normal;font-feature-settings:normal;text-align:center;letter-spacing:0px;word-spacing:0px;writing-mode:lr-tb;text-anchor:middle;fill:#e1e1e1;fill-opacity:1;stroke:none;stroke-width:0.26458332px;stroke-linecap:butt;stroke-linejoin:miter;stroke-opacity:1"
       xml:space="preserve"><tspan
         style="font-style:normal;font-variant:normal;font-weight:normal;font-stretch:normal;font-size:3.89779115px;font-family:'Cooper Hewitt';-inkscape-font-specification:'Cooper Hewitt, Normal';font-variant-ligatures:normal;font-variant-caps:normal;font-variant-numeric:normal;font-feature-settings:normal;text-align:center;writing-mode:lr-tb;text-anchor:middle;fill:#e1e1e1;fill-opacity:1;stroke-width:0.26458332px"
         y="78.524506"
         x="7.9375005"
         id="tspan901"
         sodipodi:role="line">tgl</tspan></text>
    <text
       id="text981"
       y="29.841696"
       x="7.9208164"
       style="font-style:normal;font-variant:normal;font-weight:normal;font-stretch:normal;font-size:2.76220918px;line-height:125%;font-family:'Cooper Hewitt';-inkscape-font-specification:'Cooper Hewitt, Normal';font-variant-ligatures:normal;font-variant-caps:normal;font-variant-numeric:normal;font-feature-settings:normal;text-align:center;letter-spacing:0px;word-spacing:0px;writing-mode:lr-tb;text-anchor:middle;fill:#232323;fill-opacity:1;stroke:none;stroke-width:0.26458332px;stroke-linecap:butt;stroke-linejoin:miter;stroke-opacity:1"
       xml:space="preserve"><tspan
         style="font-style:normal;font-variant:normal;font-weight:normal;font-stretch:normal;font-size:2.76220918px;font-family:'Cooper Hewitt';-inkscape-font-specification:'Cooper Hewitt, Normal';font-variant-ligatures:normal;font-variant-caps:normal;font-variant-numeric:normal;font-feature-settings:normal;text-align:center;writing-mode:lr-tb;text-anchor:middle;fill:#232323;fill-opacity:1;stroke-width:0.26458332px"
         y="29.841696"
         x="7.9208164"
         id="tspan979"
         sodipodi:role="line">trig in</tspan></text>
  </g>
</svg>
