<?xml version="1.0" encoding="UTF-8" standalone="no"?>
<!-- Created with Inkscape (http://www.inkscape.org/) -->

<svg
   xmlns:dc="http://purl.org/dc/elements/1.1/"
   xmlns:cc="http://creativecommons.org/ns#"
   xmlns:rdf="http://www.w3.org/1999/02/22-rdf-syntax-ns#"
   xmlns:svg="http://www.w3.org/2000/svg"
   xmlns="http://www.w3.org/2000/svg"
   xmlns:sodipodi="http://sodipodi.sourceforge.net/DTD/sodipodi-0.dtd"
   xmlns:inkscape="http://www.inkscape.org/namespaces/inkscape"
   width="44.999996"
   height="380"
   viewBox="0 0 11.906252 100.54167"
   version="1.1"
   id="svg8"
   inkscape:version="0.91 r13725"
   sodipodi:docname="Button_background.svg">
  <defs
     id="defs2" />
  <sodipodi:namedview
     id="base"
     pagecolor="#ffffff"
     bordercolor="#666666"
     borderopacity="1.0"
     inkscape:pageopacity="0.0"
     inkscape:pageshadow="2"
     inkscape:zoom="11.313708"
     inkscape:cx="7.1458405"
     inkscape:cy="225.29127"
     inkscape:document-units="px"
     inkscape:current-layer="layer2"
     showgrid="true"
     units="px"
     inkscape:snap-bbox="true"
     inkscape:snap-page="true"
     inkscape:bbox-nodes="true"
     inkscape:snap-bbox-edge-midpoints="true"
     inkscape:window-width="1440"
     inkscape:window-height="900"
     inkscape:window-x="0"
     inkscape:window-y="0"
     inkscape:window-maximized="0"
     inkscape:snap-text-baseline="true"
     showguides="true"
     inkscape:guide-bbox="true"
     inkscape:measure-start="0,210"
     inkscape:measure-end="7.5,210"
     fit-margin-top="0"
     fit-margin-left="0"
     fit-margin-right="0"
     fit-margin-bottom="0"
     inkscape:object-paths="true"
     inkscape:snap-smooth-nodes="true"
     inkscape:bbox-paths="true"
     inkscape:snap-nodes="true">
    <inkscape:grid
       type="xygrid"
       id="grid849"
       originx="0"
       originy="0"
       spacingx="0.13229169" />
    <sodipodi:guide
       position="5.9531261,17.197936"
       orientation="0,1"
       id="guide900"
       inkscape:locked="false" />
    <sodipodi:guide
       position="1.9843755,21.166687"
       orientation="0.70710678,0.70710678"
       id="guide902"
       inkscape:locked="false" />
    <sodipodi:guide
       position="9.921877,21.166687"
       orientation="-0.70710678,0.70710678"
       id="guide904"
       inkscape:locked="false" />
    <sodipodi:guide
       position="7.276043,21.166686"
       orientation="0,1"
       id="guide877"
       inkscape:locked="false" />
    <sodipodi:guide
       position="5.9531262,15.610435"
       orientation="1,0"
       id="guide922"
       inkscape:locked="false" />
    <sodipodi:guide
       position="-2e-08,11.24481"
       orientation="0,1"
       id="guide924"
       inkscape:locked="false" />
    <inkscape:grid
       type="xygrid"
       id="grid926"
       enabled="false"
       originx="0.13229169"
       originy="9.0000004e-06" />
    <sodipodi:guide
       position="9.1281097,20.37292"
       orientation="1,0"
       id="guide928"
       inkscape:locked="false" />
    <sodipodi:guide
       position="9.2604203,20.372917"
       orientation="0,1"
       id="guide930"
       inkscape:locked="false" />
    <sodipodi:guide
       position="5.2916682,14.022917"
       orientation="0,1"
       id="guide932"
       inkscape:locked="false" />
    <sodipodi:guide
       position="11.244794,35.718751"
       orientation="0,1"
       id="guide936"
       inkscape:locked="false" />
    <sodipodi:guide
       position="9.9218768,34.925001"
       orientation="0,1"
       id="guide938"
       inkscape:locked="false" />
    <sodipodi:guide
       position="9.9218767,26.458334"
       orientation="0.70710678,0.70710678"
       id="guide940"
       inkscape:locked="false" />
    <sodipodi:guide
       position="1.9843753,26.458334"
       orientation="-0.70710678,0.70710678"
       id="guide942"
       inkscape:locked="false" />
    <sodipodi:guide
       position="10.583336,52.916668"
       orientation="0,1"
       id="guide946"
       inkscape:locked="false" />
    <sodipodi:guide
       position="2.7781255,35.718755"
       orientation="1,0"
       id="guide948"
       inkscape:locked="false" />
    <sodipodi:guide
       position="13.229169,60.854175"
       orientation="0,1"
       id="guide952"
       inkscape:locked="false" />
    <sodipodi:guide
       position="17.19792,74.083344"
       orientation="0,1"
       id="guide954"
       inkscape:locked="false" />
    <sodipodi:guide
       position="14.552086,70.114593"
       orientation="0,1"
       id="guide956"
       inkscape:locked="false" />
    <sodipodi:guide
       position="7.2760429,27.252084"
       orientation="0,1"
       id="guide4198" />
    <sodipodi:guide
       position="9.2604183,43.127085"
       orientation="0,1"
       id="guide4217" />
    <sodipodi:guide
       position="9.9218768,39.687501"
       orientation="0.70710678,0.70710678"
       id="guide4221" />
    <sodipodi:guide
       position="1.9843754,49.477085"
       orientation="0,1"
       id="guide4223" />
    <sodipodi:guide
       position="9.9218767,52.916668"
       orientation="0.70710678,0.70710678"
       id="guide4284" />
    <sodipodi:guide
       position="3.3072922,47.625002"
       orientation="0,1"
       id="guide4286" />
  </sodipodi:namedview>
  <metadata
     id="metadata5">
    <rdf:RDF>
      <cc:Work
         rdf:about="">
        <dc:format>image/svg+xml</dc:format>
        <dc:type
           rdf:resource="http://purl.org/dc/dcmitype/StillImage" />
        <dc:title></dc:title>
      </cc:Work>
    </rdf:RDF>
  </metadata>
  <g
     inkscape:label="background"
     inkscape:groupmode="layer"
     id="layer1"
     transform="translate(-1.984375,-196.45834)"
     style="display:inline"
     sodipodi:insensitive="true">
    <path
       style="opacity:1;fill:#fafafa;fill-opacity:1;fill-rule:evenodd;stroke:none;stroke-width:0.48607072;stroke-linecap:butt;stroke-linejoin:round;stroke-miterlimit:4;stroke-dasharray:none;stroke-dashoffset:0;stroke-opacity:1;paint-order:normal"
       d="m 1.984375,196.45833 11.906251,1e-5 0,100.54168 -11.906251,-1e-5 z"
       id="rect817"
       inkscape:connector-curvature="0"
       sodipodi:nodetypes="ccccc" />
    <rect
       style="opacity:1;fill:#232323;fill-opacity:1;fill-rule:evenodd;stroke:none;stroke-width:1.05833328;stroke-linecap:butt;stroke-linejoin:bevel;stroke-miterlimit:4;stroke-dasharray:none;stroke-dashoffset:0;stroke-opacity:1;paint-order:markers stroke fill"
       id="rect875"
       width="7.9374995"
       height="11.377047"
       x="3.9687502"
       y="272.39377"
       rx="0.79374683"
       ry="0.79374683" />
    <rect
       ry="0.79374683"
       rx="0.79374683"
       y="259.16458"
       x="3.9687512"
       height="11.377102"
       width="7.9374995"
       id="rect934"
       style="opacity:1;fill:#232323;fill-opacity:1;fill-rule:evenodd;stroke:none;stroke-width:1.05833328;stroke-linecap:butt;stroke-linejoin:bevel;stroke-miterlimit:4;stroke-dasharray:none;stroke-dashoffset:0;stroke-opacity:1;paint-order:markers stroke fill" />
    <rect
       style="opacity:1;fill:#232323;fill-opacity:1;fill-rule:evenodd;stroke:none;stroke-width:1.05833328;stroke-linecap:butt;stroke-linejoin:bevel;stroke-miterlimit:4;stroke-dasharray:none;stroke-dashoffset:0;stroke-opacity:1;paint-order:markers stroke fill"
       id="rect4231"
       width="7.9374995"
       height="11.377102"
       x="3.9687512"
       y="245.93541"
       rx="0.79374683"
       ry="0.79374683" />
  </g>
  <g
     inkscape:groupmode="layer"
     id="layer4"
     inkscape:label="guides"
     style="display:none"
     sodipodi:insensitive="true">
    <rect
       ry="0.79374683"
       rx="0.79374683"
       y="36.247913"
       x="1.9843752"
       height="11.377088"
       width="7.9375014"
       id="rect950"
       style="display:inline;opacity:1;fill:#ef0000;fill-opacity:1;fill-rule:evenodd;stroke:none;stroke-width:1.05833328;stroke-linecap:butt;stroke-linejoin:bevel;stroke-miterlimit:4;stroke-dasharray:none;stroke-dashoffset:0;stroke-opacity:1;paint-order:markers stroke fill" />
  </g>
  <g
     inkscape:groupmode="layer"
     id="layer3"
     inkscape:label="text-paths"
     style="display:inline"
     transform="translate(-1.984375,-1.4223331e-5)">
    <g
       aria-label="btn"
       style="font-style:normal;font-variant:normal;font-weight:normal;font-stretch:normal;font-size:7.14057255px;line-height:125%;font-family:sans-serif;-inkscape-font-specification:sans-serif;text-align:center;letter-spacing:0px;word-spacing:0px;text-anchor:middle;fill:#000000;fill-opacity:1;stroke:none;stroke-width:0.35277766px;stroke-linecap:butt;stroke-linejoin:miter;stroke-opacity:1"
       id="text866"
       transform="matrix(0.7500002,0,0,0.7500002,1.9843734,22.094634)">
      <path
         d="m 3.8383094,90.767629 -1.1282104,0 0,4.641372 -0.064265,1.071086 1.0068207,0 0.078546,-0.456996 c 0.2142172,0.321325 0.5498241,0.549824 1.0782265,0.549824 1.035383,0 1.4066928,-0.764042 1.4066928,-1.856549 l 0,-0.257061 c 0,-1.092507 -0.3713098,-1.856549 -1.4066928,-1.856549 -0.4498561,0 -0.7569007,0.164234 -0.9711179,0.414154 z m 0,3.163274 c 0.092827,-0.135671 0.3070447,-0.357029 0.6426516,-0.357029 0.4355749,0 0.6069486,0.328467 0.6069486,0.885431 l 0,0.257061 c 0,0.556965 -0.1713737,0.885431 -0.6069486,0.885431 -0.3356069,0 -0.5498241,-0.221358 -0.6426516,-0.357029 z"
         style="font-style:normal;font-variant:normal;font-weight:normal;font-stretch:normal;font-family:'Cooper Hewitt';-inkscape-font-specification:'Cooper Hewitt';stroke-width:0.35277766px"
         id="path871"
         inkscape:connector-curvature="0" />
      <path
         d="m 8.1904883,92.695584 0,-1.071086 -1.1282104,0 0,1.071086 -0.5783864,0 0,0.985399 0.5783864,0 0,1.485239 c 0,1.042524 0.5712458,1.406693 1.4209739,1.406693 0.3427475,0 0.5426835,-0.05712 0.6069487,-0.09283 l 0,-0.928274 c -0.042844,0.02142 -0.2213578,0.04998 -0.3427475,0.04998 -0.3427475,0 -0.5569647,-0.09283 -0.5569647,-0.556965 l 0,-1.363849 0.9711179,0 0,-0.985399 z"
         style="font-style:normal;font-variant:normal;font-weight:normal;font-stretch:normal;font-family:'Cooper Hewitt';-inkscape-font-specification:'Cooper Hewitt';stroke-width:0.35277766px"
         id="path873"
         inkscape:connector-curvature="0" />
      <path
         d="m 13.229166,96.480087 0,-2.563465 c 0,-0.685495 -0.314185,-1.313866 -1.171054,-1.313866 -0.585527,0 -0.978258,0.24278 -1.213897,0.578387 l -0.08569,-0.485559 -1.0068177,0 0.064265,1.071086 0,2.713417 1.1282107,0 0,-2.549184 c 0.08569,-0.135671 0.307045,-0.357029 0.664073,-0.357029 0.385591,0 0.49984,0.257061 0.49984,0.528403 l 0,2.37781 z"
         style="font-style:normal;font-variant:normal;font-weight:normal;font-stretch:normal;font-family:'Cooper Hewitt';-inkscape-font-specification:'Cooper Hewitt';stroke-width:0.35277766px"
         id="path875"
         inkscape:connector-curvature="0" />
    </g>
    <g
       style="font-style:normal;font-variant:normal;font-weight:900;font-stretch:normal;font-size:3.56722832px;line-height:125%;font-family:Overpass;-inkscape-font-specification:'Overpass, Heavy';text-align:center;letter-spacing:0px;word-spacing:0px;writing-mode:lr-tb;text-anchor:middle;display:inline;fill:#e1e1e1;fill-opacity:1;stroke:none;stroke-width:0.26458332px;stroke-linecap:butt;stroke-linejoin:miter;stroke-opacity:1"
       id="text4200"
       transform="translate(1.337585e-7,2.6489913)">
      <path
         d="m 5.8647739,63.542826 q -0.2782438,0 -0.4958447,-0.107017 -0.2176009,-0.110584 -0.3460211,-0.29608 -0.1284203,-0.185496 -0.1961976,-0.410231 -0.06421,-0.224736 -0.06421,-0.478009 0,-0.235437 0.067777,-0.456605 0.067777,-0.224735 0.1961976,-0.413799 0.1319874,-0.189063 0.3495884,-0.303214 0.2176009,-0.117718 0.4887102,-0.117718 0.3317523,0 0.5422187,0.15339 0.2140337,0.153391 0.3781262,0.417366 l -0.4744413,0.267542 q -0.1997648,-0.317483 -0.4459036,-0.317483 -0.1926303,0 -0.3210505,0.12842 -0.1284202,0.124853 -0.1747942,0.288946 -0.042807,0.164092 -0.042807,0.353155 0,0.324618 0.1319874,0.549353 0.1355547,0.221168 0.406664,0.221168 0.1533909,0 0.2675422,-0.09988 0.1141513,-0.09988 0.1141513,-0.23187 l 0,-0.01784 -0.4066641,0 0,-0.517248 0.9631517,0 0,0.392395 q 0,0.467307 -0.2639749,0.731282 -0.2604077,0.263975 -0.6742062,0.263975 z"
         id="path4207"
         inkscape:connector-curvature="0" />
      <path
         d="m 8.7479304,63.500019 -0.1854959,-0.485143 -0.938181,0 -0.1854959,0.485143 -0.5921599,0 0.984555,-2.49706 0.5208154,0 0.9881222,2.49706 -0.5921599,0 z M 8.3805059,62.515464 8.1664722,61.976813 q -0.049941,-0.121286 -0.074912,-0.210467 -0.014269,0.06064 -0.074912,0.210467 l -0.2140337,0.538651 0.577891,0 z"
         id="path4209"
         inkscape:connector-curvature="0" />
      <path
         d="m 10.395488,61.523775 0,1.976244 -0.5422185,0 0,-1.976244 -0.7170129,0 0,-0.520816 1.9762444,0 0,0.520816 -0.717013,0 z"
         id="path4211"
         inkscape:connector-curvature="0" />
    </g>
    <g
       style="font-style:normal;font-variant:normal;font-weight:900;font-stretch:normal;font-size:3.39087534px;line-height:125%;font-family:Overpass;-inkscape-font-specification:'Overpass, Heavy';text-align:center;letter-spacing:0px;word-spacing:0px;writing-mode:lr-tb;text-anchor:middle;display:inline;fill:#e1e1e1;fill-opacity:1;stroke:none;stroke-width:0.26458332px;stroke-linecap:butt;stroke-linejoin:miter;stroke-opacity:1"
       id="text4237">
      <path
         d="m 5.9082475,50.773551 0,1.878545 -0.5154131,0 0,-1.878545 -0.6815659,0 0,-0.495068 1.8785449,0 0,0.495068 -0.6815659,0 z"
         id="path4244"
         inkscape:connector-curvature="0" />
      <path
         d="m 6.9434182,52.652096 0,-2.373613 1.1562885,0 q 0.4272503,0 0.6171393,0.213625 0.1932799,0.213625 0.1932799,0.552713 0,0.210234 -0.1152898,0.410296 -0.1152897,0.200061 -0.3153514,0.281442 l 0.4442047,0.915537 -0.5764488,0 -0.4306412,-0.837546 -0.4577682,0 0,0.837546 -0.515413,0 z m 0.515413,-1.325832 0.6476572,0 q 0.2678792,0 0.2678792,-0.281443 0,-0.118681 -0.064427,-0.196671 -0.061036,-0.08138 -0.2034525,-0.08138 l -0.6476572,0 0,0.559495 z"
         id="path4246"
         inkscape:connector-curvature="0" />
      <path
         d="m 10.237654,52.692786 q -0.2644887,0 -0.4713321,-0.101726 -0.2068434,-0.105117 -0.3289149,-0.281443 -0.1220715,-0.176325 -0.1864981,-0.38995 -0.061036,-0.213625 -0.061036,-0.454378 0,-0.223797 0.064427,-0.434032 0.064427,-0.213625 0.1864981,-0.393341 0.1254624,-0.179717 0.3323058,-0.288225 0.2068434,-0.111898 0.4645502,-0.111898 0.315351,0 0.515413,0.145807 0.203452,0.145808 0.359432,0.396733 l -0.450986,0.254315 q -0.189889,-0.301788 -0.423859,-0.301788 -0.183108,0 -0.3051791,0.122072 -0.1220715,0.118681 -0.1661529,0.274661 -0.040691,0.15598 -0.040691,0.335696 0,0.30857 0.1254624,0.522195 0.1288533,0.210234 0.3865606,0.210234 0.145807,0 0.254315,-0.09494 0.108508,-0.09494 0.108508,-0.220407 l 0,-0.01695 -0.38656,0 0,-0.491677 0.915537,0 0,0.372996 q 0,0.444205 -0.250925,0.69513 -0.247534,0.250924 -0.640875,0.250924 z"
         id="path4248"
         inkscape:connector-curvature="0" />
    </g>
    <g
       style="font-style:normal;font-variant:normal;font-weight:900;font-stretch:normal;font-size:3.56722832px;line-height:125%;font-family:Overpass;-inkscape-font-specification:'Overpass, Heavy';text-align:center;letter-spacing:0px;word-spacing:0px;writing-mode:lr-tb;text-anchor:middle;display:inline;fill:#e1e1e1;fill-opacity:1;stroke:none;stroke-width:0.26458332px;stroke-linecap:butt;stroke-linejoin:miter;stroke-opacity:1"
       id="text4250">
      <path
         d="m 5.9834794,77.355977 0,1.976245 -0.5422187,0 0,-1.976245 -0.7170129,0 0,-0.520815 1.9762445,0 0,0.520815 -0.7170129,0 z"
         id="path4257"
         inkscape:connector-curvature="0" />
      <path
         d="m 8.022875,79.375029 q -0.2782438,0 -0.4958447,-0.107017 -0.217601,-0.110584 -0.3460212,-0.29608 -0.1284202,-0.185496 -0.1961975,-0.410231 -0.06421,-0.224736 -0.06421,-0.478009 0,-0.235437 0.067777,-0.456605 0.067777,-0.224736 0.1961975,-0.413799 0.1319875,-0.189063 0.3495884,-0.303214 0.2176009,-0.117719 0.4887103,-0.117719 0.3317522,0 0.5422187,0.153391 0.2140337,0.153391 0.3781262,0.417366 L 8.4687785,77.630654 Q 8.2690137,77.313171 8.022875,77.313171 q -0.1926303,0 -0.3210506,0.12842 -0.1284202,0.124853 -0.1747941,0.288945 -0.042807,0.164093 -0.042807,0.353156 0,0.324618 0.1319875,0.549353 0.1355546,0.221168 0.406664,0.221168 0.1533908,0 0.2675421,-0.09988 0.1141513,-0.09988 0.1141513,-0.23187 l 0,-0.01784 -0.406664,0 0,-0.517248 0.9631516,0 0,0.392395 q 0,0.467307 -0.2639749,0.731282 -0.2604076,0.263975 -0.6742061,0.263975 z"
         id="path4259"
         inkscape:connector-curvature="0" />
      <path
         d="m 9.3716772,79.332222 0,-2.49706 0.5422187,0 0,1.972677 1.1985891,0 0,0.524383 -1.7408078,0 z"
         id="path4261"
         inkscape:connector-curvature="0" />
    </g>
    <g
       style="font-style:normal;font-variant:normal;font-weight:900;font-stretch:normal;font-size:2.01570797px;line-height:125%;font-family:Overpass;-inkscape-font-specification:'Overpass, Heavy';text-align:center;letter-spacing:0px;word-spacing:0px;writing-mode:lr-tb;text-anchor:middle;display:inline;fill:#232323;fill-opacity:1;stroke:none;stroke-width:0.26458332px;stroke-linecap:butt;stroke-linejoin:miter;stroke-opacity:1"
       id="text4267"
       transform="translate(8.3522291e-6,-0.58717752)">
      <path
         d="m 5.4740539,38.546616 0,1.116703 -0.3063876,0 0,-1.116703 -0.4051573,0 0,-0.294293 1.1167022,0 0,0.294293 -0.4051573,0 z"
         id="path4274"
         inkscape:connector-curvature="0" />
      <path
         d="m 6.0894118,39.663319 0,-1.410996 0.6873564,0 q 0.2539792,0 0.3668589,0.12699 0.1148953,0.126989 0.1148953,0.32856 0,0.124974 -0.068534,0.243901 -0.068534,0.118926 -0.1874608,0.167303 l 0.2640577,0.544242 -0.3426703,0 -0.2559949,-0.49788 -0.2721206,0 0,0.49788 -0.3063876,0 z m 0.3063876,-0.788142 0.3850002,0 q 0.159241,0 0.159241,-0.167304 0,-0.07055 -0.038298,-0.116911 -0.036283,-0.04838 -0.1209425,-0.04838 l -0.3850002,0 0,0.332592 z"
         id="path4276"
         inkscape:connector-curvature="0" />
      <path
         d="m 8.0476719,39.687507 q -0.1572252,0 -0.2801834,-0.06047 -0.1229582,-0.06249 -0.1955237,-0.167304 -0.072565,-0.104817 -0.1108639,-0.231806 -0.036283,-0.12699 -0.036283,-0.270105 0,-0.133037 0.038298,-0.258011 0.038298,-0.126989 0.1108639,-0.233822 0.074581,-0.106832 0.1975394,-0.171335 0.1229582,-0.06652 0.276152,-0.06652 0.1874608,0 0.3063876,0.08667 0.1209425,0.08667 0.2136651,0.235838 L 8.2996347,38.70182 q -0.1128796,-0.179398 -0.2519635,-0.179398 -0.1088482,0 -0.1814137,0.07257 -0.072565,0.07055 -0.09877,0.163273 -0.024189,0.09272 -0.024189,0.199555 0,0.183429 0.074581,0.310419 0.076597,0.124974 0.2297907,0.124974 0.086675,0 0.1511781,-0.05644 0.064503,-0.05644 0.064503,-0.131021 l 0,-0.01008 -0.2297908,0 0,-0.292277 0.5442412,0 0,0.221728 q 0,0.264057 -0.1491624,0.41322 -0.1471467,0.149162 -0.3809688,0.149162 z"
         id="path4278"
         inkscape:connector-curvature="0" />
      <path
         d="m 9.3395832,39.663319 0,-1.410996 0.3063876,0 0,1.410996 -0.3063876,0 z"
         id="path4280"
         inkscape:connector-curvature="0" />
      <path
         d="m 11.112493,39.663319 -0.268089,0 -0.532147,-0.747828 q -0.02016,-0.0262 -0.06047,-0.106833 0.006,0.03427 0.006,0.106833 l 0,0.747828 -0.3023565,0 0,-1.410996 0.2801835,0 0.518037,0.739765 q 0.0383,0.05442 0.05845,0.104817 -0.006,-0.04233 -0.006,-0.106833 l 0,-0.737749 0.306388,0 0,1.410996 z"
         id="path4282"
         inkscape:connector-curvature="0" />
    </g>
  </g>
  <g
     inkscape:groupmode="layer"
     id="layer2"
     inkscape:label="text"
     style="display:none"
     transform="translate(-1.984375,-1.4223331e-5)">
    <text
       xml:space="preserve"
       style="font-style:normal;font-variant:normal;font-weight:bold;font-stretch:normal;font-size:5.33291245px;line-height:125%;font-family:'Cooper Hewitt';-inkscape-font-specification:'Cooper Hewitt, Bold';text-align:center;letter-spacing:0px;word-spacing:0px;writing-mode:lr-tb;text-anchor:middle;fill:#000000;fill-opacity:1;stroke:none;stroke-width:0.26458332px;stroke-linecap:butt;stroke-linejoin:miter;stroke-opacity:1"
       x="7.933814"
       y="94.538681"
       id="text880"
       sodipodi:linespacing="125%"><tspan
         sodipodi:role="line"
         id="tspan878"
         x="7.933814"
         y="94.538681"
         style="font-style:normal;font-variant:normal;font-weight:bold;font-stretch:normal;font-size:5.33291245px;font-family:'Cooper Hewitt';-inkscape-font-specification:'Cooper Hewitt, Bold';text-align:center;writing-mode:lr-tb;text-anchor:middle;stroke-width:0.26458332px">btn</tspan></text>
    <text
       xml:space="preserve"
       style="font-style:normal;font-variant:normal;font-weight:900;font-stretch:normal;font-size:3.56722832px;line-height:125%;font-family:Overpass;-inkscape-font-specification:'Overpass, Heavy';text-align:center;letter-spacing:0px;word-spacing:0px;writing-mode:lr-tb;text-anchor:middle;fill:#e1e1e1;fill-opacity:1;stroke:none;stroke-width:0.26458332px;stroke-linecap:butt;stroke-linejoin:miter;stroke-opacity:1"
       x="7.9005475"
       y="66.145859"
       id="text851"
       sodipodi:linespacing="125%"><tspan
         sodipodi:role="line"
         id="tspan4196"
         x="7.9005475"
         y="66.145859">GAT</tspan></text>
    <text
       sodipodi:linespacing="125%"
       id="text4213"
       y="52.652096"
       x="7.937501"
       style="font-style:normal;font-variant:normal;font-weight:900;font-stretch:normal;font-size:3.39087534px;line-height:125%;font-family:Overpass;-inkscape-font-specification:'Overpass, Heavy';text-align:center;letter-spacing:0px;word-spacing:0px;writing-mode:lr-tb;text-anchor:middle;fill:#e1e1e1;fill-opacity:1;stroke:none;stroke-width:0.26458332px;stroke-linecap:butt;stroke-linejoin:miter;stroke-opacity:1"
       xml:space="preserve"><tspan
         y="52.652096"
         x="7.937501"
         id="tspan4215"
         sodipodi:role="line">TRG</tspan></text>
    <text
       sodipodi:linespacing="125%"
       id="text4227"
       y="79.332222"
       x="7.8779006"
       style="font-style:normal;font-variant:normal;font-weight:900;font-stretch:normal;font-size:3.56722832px;line-height:125%;font-family:Overpass;-inkscape-font-specification:'Overpass, Heavy';text-align:center;letter-spacing:0px;word-spacing:0px;writing-mode:lr-tb;text-anchor:middle;fill:#e1e1e1;fill-opacity:1;stroke:none;stroke-width:0.26458332px;stroke-linecap:butt;stroke-linejoin:miter;stroke-opacity:1"
       xml:space="preserve"><tspan
         y="79.332222"
         x="7.8779006"
         id="tspan4229"
         sodipodi:role="line">TGL</tspan></text>
    <text
       xml:space="preserve"
       style="font-style:normal;font-variant:normal;font-weight:900;font-stretch:normal;font-size:2.01570797px;line-height:125%;font-family:Overpass;-inkscape-font-specification:'Overpass, Heavy';text-align:center;letter-spacing:0px;word-spacing:0px;writing-mode:lr-tb;text-anchor:middle;fill:#232323;fill-opacity:1;stroke:none;stroke-width:0.26458332px;stroke-linecap:butt;stroke-linejoin:miter;stroke-opacity:1"
       x="7.9815092"
       y="39.076149"
       id="text4263"
       sodipodi:linespacing="125%"><tspan
         sodipodi:role="line"
         id="tspan4265"
         x="7.9815092"
         y="39.076149">TRG IN</tspan></text>
  </g>
</svg>
