<?xml version="1.0" encoding="UTF-8" standalone="no"?>
<!-- Created with Inkscape (http://www.inkscape.org/) -->

<svg
   xmlns:dc="http://purl.org/dc/elements/1.1/"
   xmlns:cc="http://creativecommons.org/ns#"
   xmlns:rdf="http://www.w3.org/1999/02/22-rdf-syntax-ns#"
   xmlns:svg="http://www.w3.org/2000/svg"
   xmlns="http://www.w3.org/2000/svg"
   xmlns:sodipodi="http://sodipodi.sourceforge.net/DTD/sodipodi-0.dtd"
   xmlns:inkscape="http://www.inkscape.org/namespaces/inkscape"
   width="44.999996"
   height="380"
   viewBox="0 0 11.906252 100.54167"
   version="1.1"
   id="svg8"
   inkscape:version="0.91 r13725"
   sodipodi:docname="ButtonModule.svg">
  <defs
     id="defs2">
    <linearGradient
       gradientTransform="matrix(0,6.4087959,-6.4087959,0,102.632,66.415358)"
       y2="0"
       x2="1.32507"
       y1="0"
       x1="-0.095554203"
       gradientUnits="userSpaceOnUse"
       id="linear20">
      <stop
         id="stop217759"
         style="stop-color:rgb(25.489807%,25.097656%,25.881958%);stop-opacity:1;"
         offset="0" />
      <stop
         id="stop217761"
         style="stop-color:rgb(25.489807%,25.097656%,25.881958%);stop-opacity:1;"
         offset="0.0625" />
      <stop
         id="stop217763"
         style="stop-color:rgb(25.398254%,24.996948%,25.778198%);stop-opacity:1;"
         offset="0.078125" />
      <stop
         id="stop217765"
         style="stop-color:rgb(25.177002%,24.754333%,25.527954%);stop-opacity:1;"
         offset="0.09375" />
      <stop
         id="stop217767"
         style="stop-color:rgb(24.916077%,24.465942%,25.231934%);stop-opacity:1;"
         offset="0.109375" />
      <stop
         id="stop217769"
         style="stop-color:rgb(24.653625%,24.179077%,24.935913%);stop-opacity:1;"
         offset="0.125" />
      <stop
         id="stop217771"
         style="stop-color:rgb(24.3927%,23.892212%,24.639893%);stop-opacity:1;"
         offset="0.140625" />
      <stop
         id="stop217773"
         style="stop-color:rgb(24.131775%,23.605347%,24.343872%);stop-opacity:1;"
         offset="0.15625" />
      <stop
         id="stop217775"
         style="stop-color:rgb(23.87085%,23.316956%,24.047852%);stop-opacity:1;"
         offset="0.171875" />
      <stop
         id="stop217777"
         style="stop-color:rgb(23.609924%,23.03009%,23.751831%);stop-opacity:1;"
         offset="0.1875" />
      <stop
         id="stop217779"
         style="stop-color:rgb(23.348999%,22.743225%,23.455811%);stop-opacity:1;"
         offset="0.203125" />
      <stop
         id="stop217781"
         style="stop-color:rgb(23.088074%,22.45636%,23.15979%);stop-opacity:1;"
         offset="0.21875" />
      <stop
         id="stop217783"
         style="stop-color:rgb(22.825623%,22.167969%,22.86377%);stop-opacity:1;"
         offset="0.234375" />
      <stop
         id="stop217785"
         style="stop-color:rgb(22.564697%,21.881104%,22.567749%);stop-opacity:1;"
         offset="0.25" />
      <stop
         id="stop217787"
         style="stop-color:rgb(22.303772%,21.594238%,22.271729%);stop-opacity:1;"
         offset="0.265625" />
      <stop
         id="stop217789"
         style="stop-color:rgb(22.042847%,21.307373%,21.975708%);stop-opacity:1;"
         offset="0.28125" />
      <stop
         id="stop217791"
         style="stop-color:rgb(21.781921%,21.018982%,21.679688%);stop-opacity:1;"
         offset="0.296875" />
      <stop
         id="stop217793"
         style="stop-color:rgb(21.520996%,20.732117%,21.383667%);stop-opacity:1;"
         offset="0.3125" />
      <stop
         id="stop217795"
         style="stop-color:rgb(21.260071%,20.445251%,21.087646%);stop-opacity:1;"
         offset="0.328125" />
      <stop
         id="stop217797"
         style="stop-color:rgb(20.99762%,20.15686%,20.793152%);stop-opacity:1;"
         offset="0.34375" />
      <stop
         id="stop217799"
         style="stop-color:rgb(20.736694%,19.869995%,20.497131%);stop-opacity:1;"
         offset="0.359375" />
      <stop
         id="stop217801"
         style="stop-color:rgb(20.475769%,19.58313%,20.201111%);stop-opacity:1;"
         offset="0.375" />
      <stop
         id="stop217803"
         style="stop-color:rgb(20.214844%,19.296265%,19.90509%);stop-opacity:1;"
         offset="0.390625" />
      <stop
         id="stop217805"
         style="stop-color:rgb(19.953918%,19.007874%,19.60907%);stop-opacity:1;"
         offset="0.40625" />
      <stop
         id="stop217807"
         style="stop-color:rgb(19.692993%,18.721008%,19.313049%);stop-opacity:1;"
         offset="0.421875" />
      <stop
         id="stop217809"
         style="stop-color:rgb(19.432068%,18.434143%,19.017029%);stop-opacity:1;"
         offset="0.4375" />
      <stop
         id="stop217811"
         style="stop-color:rgb(19.169617%,18.147278%,18.721008%);stop-opacity:1;"
         offset="0.453125" />
      <stop
         id="stop217813"
         style="stop-color:rgb(18.908691%,17.858887%,18.424988%);stop-opacity:1;"
         offset="0.46875" />
      <stop
         id="stop217815"
         style="stop-color:rgb(18.647766%,17.572021%,18.128967%);stop-opacity:1;"
         offset="0.484375" />
      <stop
         id="stop217817"
         style="stop-color:rgb(18.386841%,17.285156%,17.832947%);stop-opacity:1;"
         offset="0.5" />
      <stop
         id="stop217819"
         style="stop-color:rgb(18.125916%,16.998291%,17.536926%);stop-opacity:1;"
         offset="0.515625" />
      <stop
         id="stop217821"
         style="stop-color:rgb(17.86499%,16.7099%,17.240906%);stop-opacity:1;"
         offset="0.53125" />
      <stop
         id="stop217823"
         style="stop-color:rgb(17.604065%,16.423035%,16.944885%);stop-opacity:1;"
         offset="0.546875" />
      <stop
         id="stop217825"
         style="stop-color:rgb(17.341614%,16.136169%,16.648865%);stop-opacity:1;"
         offset="0.5625" />
      <stop
         id="stop217827"
         style="stop-color:rgb(17.080688%,15.849304%,16.352844%);stop-opacity:1;"
         offset="0.578125" />
      <stop
         id="stop217829"
         style="stop-color:rgb(16.819763%,15.560913%,16.056824%);stop-opacity:1;"
         offset="0.59375" />
      <stop
         id="stop217831"
         style="stop-color:rgb(16.558838%,15.274048%,15.760803%);stop-opacity:1;"
         offset="0.609375" />
      <stop
         id="stop217833"
         style="stop-color:rgb(16.297913%,14.987183%,15.464783%);stop-opacity:1;"
         offset="0.625" />
      <stop
         id="stop217835"
         style="stop-color:rgb(16.036987%,14.700317%,15.168762%);stop-opacity:1;"
         offset="0.640625" />
      <stop
         id="stop217837"
         style="stop-color:rgb(15.776062%,14.411926%,14.872742%);stop-opacity:1;"
         offset="0.65625" />
      <stop
         id="stop217839"
         style="stop-color:rgb(15.513611%,14.125061%,14.576721%);stop-opacity:1;"
         offset="0.671875" />
      <stop
         id="stop217841"
         style="stop-color:rgb(15.252686%,13.838196%,14.280701%);stop-opacity:1;"
         offset="0.6875" />
      <stop
         id="stop217843"
         style="stop-color:rgb(14.99176%,13.551331%,13.98468%);stop-opacity:1;"
         offset="0.703125" />
      <stop
         id="stop217845"
         style="stop-color:rgb(14.730835%,13.262939%,13.68866%);stop-opacity:1;"
         offset="0.71875" />
      <stop
         id="stop217847"
         style="stop-color:rgb(14.46991%,12.976074%,13.392639%);stop-opacity:1;"
         offset="0.734375" />
      <stop
         id="stop217849"
         style="stop-color:rgb(14.208984%,12.689209%,13.096619%);stop-opacity:1;"
         offset="0.75" />
      <stop
         id="stop217851"
         style="stop-color:rgb(13.948059%,12.402344%,12.802124%);stop-opacity:1;"
         offset="0.765625" />
      <stop
         id="stop217853"
         style="stop-color:rgb(13.771057%,12.207031%,12.600708%);stop-opacity:1;"
         offset="0.78125" />
      <stop
         id="stop217855"
         style="stop-color:rgb(13.725281%,12.156677%,12.548828%);stop-opacity:1;"
         offset="0.8125" />
      <stop
         id="stop217857"
         style="stop-color:rgb(13.725281%,12.156677%,12.548828%);stop-opacity:1;"
         offset="0.875" />
      <stop
         id="stop217859"
         style="stop-color:rgb(13.725281%,12.156677%,12.548828%);stop-opacity:1;"
         offset="1" />
    </linearGradient>
  </defs>
  <sodipodi:namedview
     id="base"
     pagecolor="#ffffff"
     bordercolor="#666666"
     borderopacity="1.0"
     inkscape:pageopacity="0.0"
     inkscape:pageshadow="2"
     inkscape:zoom="32"
     inkscape:cx="11.344699"
     inkscape:cy="373.40227"
     inkscape:document-units="px"
     inkscape:current-layer="layer2"
     showgrid="true"
     units="px"
     inkscape:snap-bbox="true"
     inkscape:snap-page="true"
     inkscape:bbox-nodes="true"
     inkscape:snap-bbox-edge-midpoints="true"
     inkscape:window-width="1436"
     inkscape:window-height="848"
     inkscape:window-x="0"
     inkscape:window-y="32"
     inkscape:window-maximized="0"
     inkscape:snap-text-baseline="true"
     showguides="true"
     inkscape:guide-bbox="true"
     inkscape:measure-start="0,210"
     inkscape:measure-end="7.5,210"
     fit-margin-top="0"
     fit-margin-left="0"
     fit-margin-right="0"
     fit-margin-bottom="0"
     inkscape:object-paths="true"
     inkscape:snap-smooth-nodes="true"
     inkscape:bbox-paths="true"
     inkscape:snap-nodes="true"
     inkscape:snap-object-midpoints="false"
     inkscape:snap-bbox-midpoints="true"
     inkscape:object-nodes="true">
    <inkscape:grid
       type="xygrid"
       id="grid849"
       originx="0"
       originy="0"
       spacingx="0.13229169" />
    <sodipodi:guide
       position="5.953126,77.787503"
       orientation="1,0"
       id="guide922"
       inkscape:locked="false" />
    <inkscape:grid
       type="xygrid"
       id="grid926"
       enabled="false"
       originx="0.13229169"
       originy="9.0000004e-06" />
    <sodipodi:guide
       position="9.1281097,20.37292"
       orientation="1,0"
       id="guide928"
       inkscape:locked="false" />
    <sodipodi:guide
       position="2.7781255,35.718755"
       orientation="1,0"
       id="guide948"
       inkscape:locked="false" />
    <sodipodi:guide
       position="8.0697931,79.044273"
       orientation="1,0"
       id="guide4333" />
    <sodipodi:guide
       position="9.9218768,73.554169"
       orientation="0.70710678,0.70710678"
       id="guide4725" />
    <sodipodi:guide
       position="9.9218767,84.931253"
       orientation="-0.70710678,0.70710678"
       id="guide4727" />
    <sodipodi:guide
       position="3.9687507,84.137503"
       orientation="0,1"
       id="guide4729" />
    <sodipodi:guide
       position="9.9218768,79.375003"
       orientation="1,0"
       id="guide4817" />
    <sodipodi:guide
       position="1.9843754,80.697919"
       orientation="1,0"
       id="guide4819" />
    <sodipodi:guide
       position="7.2760429,5.8208335"
       orientation="0,1"
       id="guide4907" />
    <sodipodi:guide
       position="9.9218768,11.90625"
       orientation="0.70710678,0.70710678"
       id="guide4909" />
    <sodipodi:guide
       position="1.9843754,11.90625"
       orientation="-0.70710678,0.70710678"
       id="guide4911" />
    <sodipodi:guide
       position="9.9218768,32.543751"
       orientation="0.70710678,0.70710678"
       id="guide4913" />
    <sodipodi:guide
       position="6.6145845,84.931253"
       orientation="0,1"
       id="guide4918" />
    <sodipodi:guide
       position="0,99.218753"
       orientation="1,0"
       id="guide5019" />
    <sodipodi:guide
       position="0,100.54167"
       orientation="0.70710678,0.70710678"
       id="guide5024" />
    <sodipodi:guide
       position="0.92604183,100.0125"
       orientation="0,1"
       id="guide6060" />
    <sodipodi:guide
       position="0.13229169,97.102087"
       orientation="0,1"
       id="guide6062" />
  </sodipodi:namedview>
  <metadata
     id="metadata5">
    <rdf:RDF>
      <cc:Work
         rdf:about="">
        <dc:format>image/svg+xml</dc:format>
        <dc:type
           rdf:resource="http://purl.org/dc/dcmitype/StillImage" />
        <dc:title></dc:title>
      </cc:Work>
    </rdf:RDF>
  </metadata>
  <g
     inkscape:groupmode="layer"
     id="layer7"
     inkscape:label="background"
     sodipodi:insensitive="true">
    <path
       transform="translate(-1.984375,-196.45834)"
       style="display:inline;opacity:1;fill:#fafafa;fill-opacity:1;fill-rule:evenodd;stroke:none;stroke-width:0.48607072;stroke-linecap:butt;stroke-linejoin:round;stroke-miterlimit:4;stroke-dasharray:none;stroke-dashoffset:0;stroke-opacity:1;paint-order:normal"
       d="m 1.984375,196.45833 11.906251,1e-5 0,100.54168 -11.906251,-1e-5 z"
       id="rect817"
       inkscape:connector-curvature="0"
       sodipodi:nodetypes="ccccc" />
    <g
       aria-label="btn"
       style="font-style:normal;font-variant:normal;font-weight:normal;font-stretch:normal;font-size:7.14057255px;line-height:125%;font-family:sans-serif;-inkscape-font-specification:sans-serif;text-align:center;letter-spacing:0px;word-spacing:0px;text-anchor:middle;display:inline;fill:#000000;fill-opacity:1;stroke:none;stroke-width:0.35277766px;stroke-linecap:butt;stroke-linejoin:miter;stroke-opacity:1"
       id="text866"
       transform="matrix(0.7500002,0,0,0.7500002,-1.6e-6,22.360764)">
      <path
         d="m 3.8383094,90.767629 -1.1282104,0 0,4.641372 -0.064265,1.071086 1.0068207,0 0.078546,-0.456996 c 0.2142172,0.321325 0.5498241,0.549824 1.0782265,0.549824 1.035383,0 1.4066928,-0.764042 1.4066928,-1.856549 l 0,-0.257061 c 0,-1.092507 -0.3713098,-1.856549 -1.4066928,-1.856549 -0.4498561,0 -0.7569007,0.164234 -0.9711179,0.414154 z m 0,3.163274 c 0.092827,-0.135671 0.3070447,-0.357029 0.6426516,-0.357029 0.4355749,0 0.6069486,0.328467 0.6069486,0.885431 l 0,0.257061 c 0,0.556965 -0.1713737,0.885431 -0.6069486,0.885431 -0.3356069,0 -0.5498241,-0.221358 -0.6426516,-0.357029 z"
         style="font-style:normal;font-variant:normal;font-weight:normal;font-stretch:normal;font-family:'Cooper Hewitt';-inkscape-font-specification:'Cooper Hewitt';stroke-width:0.35277766px"
         id="path871"
         inkscape:connector-curvature="0" />
      <path
         d="m 8.1904883,92.695584 0,-1.071086 -1.1282104,0 0,1.071086 -0.5783864,0 0,0.985399 0.5783864,0 0,1.485239 c 0,1.042524 0.5712458,1.406693 1.4209739,1.406693 0.3427475,0 0.5426835,-0.05712 0.6069487,-0.09283 l 0,-0.928274 c -0.042844,0.02142 -0.2213578,0.04998 -0.3427475,0.04998 -0.3427475,0 -0.5569647,-0.09283 -0.5569647,-0.556965 l 0,-1.363849 0.9711179,0 0,-0.985399 z"
         style="font-style:normal;font-variant:normal;font-weight:normal;font-stretch:normal;font-family:'Cooper Hewitt';-inkscape-font-specification:'Cooper Hewitt';stroke-width:0.35277766px"
         id="path873"
         inkscape:connector-curvature="0" />
      <path
         d="m 13.229166,96.480087 0,-2.563465 c 0,-0.685495 -0.314185,-1.313866 -1.171054,-1.313866 -0.585527,0 -0.978258,0.24278 -1.213897,0.578387 l -0.08569,-0.485559 -1.0068177,0 0.064265,1.071086 0,2.713417 1.1282107,0 0,-2.549184 c 0.08569,-0.135671 0.307045,-0.357029 0.664073,-0.357029 0.385591,0 0.49984,0.257061 0.49984,0.528403 l 0,2.37781 z"
         style="font-style:normal;font-variant:normal;font-weight:normal;font-stretch:normal;font-family:'Cooper Hewitt';-inkscape-font-specification:'Cooper Hewitt';stroke-width:0.35277766px"
         id="path875"
         inkscape:connector-curvature="0" />
    </g>
  </g>
  <g
     inkscape:groupmode="layer"
     id="layer8"
     inkscape:label="guides 2"
     style="display:none"
     sodipodi:insensitive="true">
    <rect
       ry="0.79374683"
       rx="0.79374683"
       y="15.605661"
       x="1.984376"
       height="11.377088"
       width="7.9375014"
       id="rect950"
       style="display:inline;opacity:1;fill:#ef0000;fill-opacity:1;fill-rule:evenodd;stroke:none;stroke-width:1.05833328;stroke-linecap:butt;stroke-linejoin:bevel;stroke-miterlimit:4;stroke-dasharray:none;stroke-dashoffset:0;stroke-opacity:1;paint-order:markers stroke fill" />
  </g>
  <g
     inkscape:label="labels"
     inkscape:groupmode="layer"
     id="layer1"
     transform="translate(-1.984375,-196.45834)"
     style="display:inline">
    <g
       id="g4706"
       transform="translate(6.5455852e-7,54.239587)">
      <rect
         style="opacity:1;fill:#232323;fill-opacity:1;fill-rule:evenodd;stroke:none;stroke-width:1.05833328;stroke-linecap:butt;stroke-linejoin:bevel;stroke-miterlimit:4;stroke-dasharray:none;stroke-dashoffset:0;stroke-opacity:1;paint-order:markers stroke fill"
         id="rect4199"
         width="7.9375005"
         height="18.785427"
         x="3.9687512"
         y="212.06876"
         rx="0.79374683"
         ry="0.79374683" />
      <g
         transform="translate(0,188.86651)"
         id="text4214"
         style="font-style:normal;font-variant:normal;font-weight:900;font-stretch:normal;font-size:1.97112656px;line-height:125%;font-family:Overpass;-inkscape-font-specification:'Overpass, Heavy';text-align:center;letter-spacing:0px;word-spacing:0px;writing-mode:lr-tb;text-anchor:middle;display:inline;fill:#e1e1e1;fill-opacity:1;stroke:none;stroke-width:0.26458332px;stroke-linecap:butt;stroke-linejoin:miter;stroke-opacity:1">
        <path
           inkscape:connector-curvature="0"
           id="path4221"
           d="m 5.3439826,25.84471 q -0.155719,0 -0.2739865,-0.0611 -0.1162965,-0.06308 -0.1813437,-0.167546 -0.065047,-0.104469 -0.096585,-0.224708 -0.029567,-0.120239 -0.029567,-0.256246 0,-0.124181 0.031538,-0.242449 0.031538,-0.120239 0.096585,-0.22668 0.065047,-0.108412 0.1813437,-0.173459 0.1182676,-0.06702 0.2720154,-0.06702 0.1872571,0 0.3193225,0.09659 0.1320655,0.09659 0.1872571,0.234564 L 5.582489,24.876887 q -0.057163,-0.08476 -0.1103831,-0.124181 -0.051249,-0.03942 -0.1281233,-0.03942 -0.072932,0 -0.1281232,0.03942 -0.055192,0.03745 -0.084758,0.102499 -0.029567,0.06308 -0.043365,0.134036 -0.013798,0.06899 -0.013798,0.145864 0,0.104469 0.025625,0.197112 0.027596,0.09264 0.090672,0.159661 0.065047,0.06505 0.1537478,0.06505 0.1281233,0 0.2345641,-0.177402 l 0.2739866,0.102499 Q 5.6849875,25.84471 5.3439826,25.84471 Z" />
        <path
           inkscape:connector-curvature="0"
           id="path4223"
           d="m 6.6036249,25.848652 q -0.1300943,0 -0.2365352,-0.04139 -0.1044697,-0.04139 -0.1734591,-0.110383 -0.068989,-0.07096 -0.1162965,-0.163604 -0.045336,-0.09264 -0.067018,-0.191199 -0.019711,-0.100528 -0.019711,-0.206968 0,-0.106441 0.019711,-0.204998 0.021682,-0.100527 0.067018,-0.19317 0.047307,-0.09264 0.1162965,-0.161632 0.068989,-0.07096 0.1734591,-0.112355 0.1064409,-0.04139 0.2365352,-0.04139 0.1596613,0 0.2818711,0.06308 0.1222098,0.06111 0.1911993,0.167546 0.068989,0.104469 0.1024986,0.226679 0.03548,0.12221 0.03548,0.256247 0,0.134036 -0.03548,0.256246 -0.033509,0.12221 -0.1024986,0.228651 -0.068989,0.104469 -0.1911993,0.167545 -0.1222098,0.06111 -0.2818711,0.06111 z m 0,-0.289755 q 0.1024986,0 0.1734591,-0.06899 0.070961,-0.07096 0.098556,-0.161632 0.027596,-0.09264 0.027596,-0.19317 0,-0.106441 -0.025625,-0.197113 -0.025625,-0.09264 -0.096585,-0.159661 -0.070961,-0.06899 -0.1774014,-0.06899 -0.1064408,0 -0.1793725,0.07096 -0.070961,0.06899 -0.096585,0.161632 -0.025625,0.09067 -0.025625,0.193171 0,0.07687 0.015769,0.147834 0.015769,0.07096 0.049278,0.136008 0.033509,0.06308 0.094614,0.102498 0.061105,0.03745 0.1419211,0.03745 z" />
        <path
           inkscape:connector-curvature="0"
           id="path4225"
           d="m 8.5919063,25.824999 -0.2621598,0 -0.5203774,-0.731288 q -0.019711,-0.02562 -0.059134,-0.10447 0.00591,0.03351 0.00591,0.10447 l 0,0.731288 -0.2956689,0 0,-1.379789 0.2739866,0 0.5065795,0.723404 q 0.037451,0.05322 0.057163,0.102498 -0.00591,-0.04139 -0.00591,-0.104469 l 0,-0.721433 0.2996112,0 0,1.379789 z" />
        <path
           inkscape:connector-curvature="0"
           id="path4227"
           d="m 9.3599682,25.848652 q -0.2010549,0 -0.3469182,-0.10644 Q 8.8691577,25.6338 8.8060817,25.444571 l 0.2680732,-0.100527 q 0.047307,0.100527 0.1241809,0.161632 0.076874,0.05913 0.1695169,0.05913 0.096585,0 0.1517768,-0.03548 0.055191,-0.03745 0.055191,-0.106441 0,-0.04534 -0.041394,-0.08082 -0.039423,-0.03548 -0.084759,-0.05125 -0.043365,-0.01774 -0.1360077,-0.04731 -0.061105,-0.01971 -0.092643,-0.02957 -0.029567,-0.01183 -0.08673,-0.03548 -0.057163,-0.02365 -0.08673,-0.04336 -0.029567,-0.01971 -0.070961,-0.05322 -0.041394,-0.03351 -0.063076,-0.06899 -0.019711,-0.03745 -0.03548,-0.0887 -0.015769,-0.05322 -0.015769,-0.112354 0,-0.165575 0.1300944,-0.277929 0.1300943,-0.112354 0.3528316,-0.112354 0.1852859,0 0.311438,0.09659 0.1261521,0.09658 0.1675458,0.248362 l -0.2680732,0.08673 q -0.065047,-0.147834 -0.2266796,-0.147834 -0.1675458,0 -0.1675458,0.112354 0,0.02563 0.015769,0.04534 0.015769,0.01971 0.057163,0.03942 0.041394,0.01971 0.067018,0.02957 0.027596,0.0099 0.094614,0.03351 0.070961,0.02365 0.108412,0.03745 0.039423,0.0138 0.1064408,0.04336 0.067018,0.0276 0.1044697,0.06111 0.039422,0.03154 0.080816,0.07687 0.041394,0.04534 0.059134,0.106441 0.019711,0.0611 0.019711,0.134036 0,0.195142 -0.1458634,0.309467 -0.1458634,0.114325 -0.3686007,0.114325 z" />
        <path
           inkscape:connector-curvature="0"
           id="path4229"
           d="m 10.716288,24.732995 0,1.092004 -0.299611,0 0,-1.092004 -0.396197,0 0,-0.287785 1.092004,0 0,0.287785 -0.396196,0 z" />
      </g>
      <g
         transform="matrix(0.85714261,0,0,0.85714261,1.2841797,199.44434)"
         id="text4594"
         style="font-style:normal;font-variant:normal;font-weight:900;font-stretch:normal;font-size:2.6458354px;line-height:125%;font-family:Overpass;-inkscape-font-specification:'Overpass, Heavy';text-align:center;letter-spacing:0px;word-spacing:0px;writing-mode:lr-tb;text-anchor:middle;display:inline;fill:#e1e1e1;fill-opacity:1;stroke:none;stroke-width:0.26458332px;stroke-linecap:butt;stroke-linejoin:miter;stroke-opacity:1">
        <path
           inkscape:connector-curvature="0"
           id="path4613"
           d="m 7.9292733,20.902096 0,-1.333501 -0.272521,0 0,-0.328084 q 0.2831043,0 0.3466044,-0.1905 l 0.3280836,0 0,1.852085 -0.402167,0 z" />
        <path
           inkscape:connector-curvature="0"
           id="path4615"
           d="m 9.2739778,20.902096 -0.6667505,-1.852085 0.4365628,0 0.3995212,1.166813 q 0.00794,0.01852 0.015875,0.05027 l 0.00794,0.0291 q 0.00529,-0.02381 0.023813,-0.07938 l 0.3995211,-1.166813 0.4312716,0 -0.6641051,1.852085 -0.3836461,0 z" />
      </g>
      <g
         transform="matrix(0.84269496,0,0,0.84269496,1.4192557,200.13578)"
         id="text4598"
         style="font-style:normal;font-variant:normal;font-weight:900;font-stretch:normal;font-size:2.6458354px;line-height:125%;font-family:Overpass;-inkscape-font-specification:'Overpass, Heavy';text-align:center;letter-spacing:0px;word-spacing:0px;writing-mode:lr-tb;text-anchor:middle;display:inline;fill:#e1e1e1;fill-opacity:1;stroke:none;stroke-width:0.26458332px;stroke-linecap:butt;stroke-linejoin:miter;stroke-opacity:1">
        <path
           inkscape:connector-curvature="0"
           id="path4618"
           d="m 8.0129479,23.57968 q -0.3439586,0 -0.579438,-0.182563 l 0.209021,-0.314854 q 0.1852085,0.116416 0.370417,0.116416 0.1455209,0 0.2301876,-0.07144 0.084667,-0.07144 0.084667,-0.206375 0,-0.105834 -0.055563,-0.169334 -0.055563,-0.06615 -0.1613959,-0.06615 -0.1587502,0 -0.2751669,0.132292 l -0.3492503,-0.182562 0.039688,-0.939272 1.0847926,0 0,0.386292 -0.7143756,0 -0.010583,0.261938 q 0.1270001,-0.03969 0.2275418,-0.03969 0.2936877,0 0.4524379,0.174625 0.1613959,0.174625 0.1613959,0.447146 0,0.29898 -0.2010835,0.476251 -0.2010835,0.177271 -0.513292,0.177271 z" />
        <path
           inkscape:connector-curvature="0"
           id="path4620"
           d="m 9.5633661,23.54793 -0.6667505,-1.852085 0.4365628,0 0.3995211,1.166813 q 0.00794,0.01852 0.015875,0.05027 l 0.00794,0.0291 q 0.00529,-0.02381 0.023813,-0.07937 l 0.3995215,-1.166813 0.431271,0 -0.6641049,1.852085 -0.3836461,0 z" />
      </g>
      <g
         transform="matrix(0.84530756,0,0,0.84530756,1.3930645,200.51521)"
         id="text4602"
         style="font-style:normal;font-variant:normal;font-weight:900;font-stretch:normal;font-size:2.6458354px;line-height:125%;font-family:Overpass;-inkscape-font-specification:'Overpass, Heavy';text-align:center;letter-spacing:0px;word-spacing:0px;writing-mode:lr-tb;text-anchor:middle;display:inline;fill:#e1e1e1;fill-opacity:1;stroke:none;stroke-width:0.26458332px;stroke-linecap:butt;stroke-linejoin:miter;stroke-opacity:1">
        <path
           inkscape:connector-curvature="0"
           id="path4623"
           d="m 7.0617704,26.193764 0,-1.333501 -0.272521,0 0,-0.328084 q 0.2831043,0 0.3466044,-0.1905 l 0.3280836,0 0,1.852085 -0.402167,0 z" />
        <path
           inkscape:connector-curvature="0"
           id="path4625"
           d="m 8.6916463,26.225514 q -0.1587501,0 -0.2831044,-0.05556 -0.1217084,-0.05821 -0.1984376,-0.150812 -0.076729,-0.0926 -0.1270001,-0.219605 -0.047625,-0.127 -0.068792,-0.256646 -0.018521,-0.129646 -0.018521,-0.275167 0,-0.1905 0.034396,-0.351896 0.034396,-0.161396 0.1111251,-0.301625 0.076729,-0.142875 0.2169585,-0.22225 0.1402292,-0.08202 0.3333752,-0.08202 0.1957918,0 0.3360211,0.08202 0.1402293,0.08202 0.2143127,0.224896 0.076729,0.140229 0.1084792,0.301625 0.034396,0.161396 0.034396,0.34925 0,0.187855 -0.034396,0.351896 -0.034396,0.161396 -0.111125,0.301626 -0.074083,0.140229 -0.2143127,0.22225 -0.1402293,0.08202 -0.3333753,0.08202 z m 0,-0.381001 q 0.1561043,0 0.224896,-0.161395 0.071438,-0.164042 0.071438,-0.415397 0,-0.15875 -0.026458,-0.280458 -0.023813,-0.124354 -0.09525,-0.209021 -0.068792,-0.08731 -0.1746252,-0.08731 -0.1561043,0 -0.2275418,0.164042 -0.071438,0.161396 -0.071438,0.41275 0,0.156105 0.026458,0.280459 0.026458,0.121708 0.09525,0.209021 0.068792,0.08731 0.1772709,0.08731 z" />
        <path
           inkscape:connector-curvature="0"
           id="path4627"
           d="m 10.17381,26.193764 -0.6667502,-1.852085 0.4365629,0 0.3995213,1.166813 q 0.0079,0.01852 0.01587,0.05027 l 0.0079,0.0291 q 0.0053,-0.02381 0.02381,-0.07937 l 0.399521,-1.166813 0.431271,0 -0.664105,1.852085 -0.383646,0 z" />
      </g>
    </g>
    <g
       style="font-style:normal;font-variant:normal;font-weight:900;font-stretch:normal;font-size:2.01570797px;line-height:125%;font-family:Overpass;-inkscape-font-specification:'Overpass, Heavy';text-align:center;letter-spacing:0px;word-spacing:0px;writing-mode:lr-tb;text-anchor:middle;display:inline;fill:#232323;fill-opacity:1;stroke:none;stroke-width:0.26458332px;stroke-linecap:butt;stroke-linejoin:miter;stroke-opacity:1"
       id="text4267"
       transform="translate(1.0158233e-5,175.22894)">
      <path
         d="m 5.4740539,38.546616 0,1.116703 -0.3063876,0 0,-1.116703 -0.4051573,0 0,-0.294293 1.1167022,0 0,0.294293 -0.4051573,0 z"
         id="path4274"
         inkscape:connector-curvature="0" />
      <path
         d="m 6.0894118,39.663319 0,-1.410996 0.6873564,0 q 0.2539792,0 0.3668589,0.12699 0.1148953,0.126989 0.1148953,0.32856 0,0.124974 -0.068534,0.243901 -0.068534,0.118926 -0.1874608,0.167303 l 0.2640577,0.544242 -0.3426703,0 -0.2559949,-0.49788 -0.2721206,0 0,0.49788 -0.3063876,0 z m 0.3063876,-0.788142 0.3850002,0 q 0.159241,0 0.159241,-0.167304 0,-0.07055 -0.038298,-0.116911 -0.036283,-0.04838 -0.1209425,-0.04838 l -0.3850002,0 0,0.332592 z"
         id="path4276"
         inkscape:connector-curvature="0" />
      <path
         d="m 8.0476719,39.687507 q -0.1572252,0 -0.2801834,-0.06047 -0.1229582,-0.06249 -0.1955237,-0.167304 -0.072565,-0.104817 -0.1108639,-0.231806 -0.036283,-0.12699 -0.036283,-0.270105 0,-0.133037 0.038298,-0.258011 0.038298,-0.126989 0.1108639,-0.233822 0.074581,-0.106832 0.1975394,-0.171335 0.1229582,-0.06652 0.276152,-0.06652 0.1874608,0 0.3063876,0.08667 0.1209425,0.08667 0.2136651,0.235838 L 8.2996347,38.70182 q -0.1128796,-0.179398 -0.2519635,-0.179398 -0.1088482,0 -0.1814137,0.07257 -0.072565,0.07055 -0.09877,0.163273 -0.024189,0.09272 -0.024189,0.199555 0,0.183429 0.074581,0.310419 0.076597,0.124974 0.2297907,0.124974 0.086675,0 0.1511781,-0.05644 0.064503,-0.05644 0.064503,-0.131021 l 0,-0.01008 -0.2297908,0 0,-0.292277 0.5442412,0 0,0.221728 q 0,0.264057 -0.1491624,0.41322 -0.1471467,0.149162 -0.3809688,0.149162 z"
         id="path4278"
         inkscape:connector-curvature="0" />
      <path
         d="m 9.3395832,39.663319 0,-1.410996 0.3063876,0 0,1.410996 -0.3063876,0 z"
         id="path4280"
         inkscape:connector-curvature="0" />
      <path
         d="m 11.112493,39.663319 -0.268089,0 -0.532147,-0.747828 q -0.02016,-0.0262 -0.06047,-0.106833 0.006,0.03427 0.006,0.106833 l 0,0.747828 -0.3023565,0 0,-1.410996 0.2801835,0 0.518037,0.739765 q 0.0383,0.05442 0.05845,0.104817 -0.006,-0.04233 -0.006,-0.106833 l 0,-0.737749 0.306388,0 0,1.410996 z"
         id="path4282"
         inkscape:connector-curvature="0" />
    </g>
    <g
       id="g4699"
       transform="translate(1.7582328e-6,-19.314551)">
      <rect
         ry="0.79374683"
         rx="0.79374683"
         y="245.93541"
         x="3.9687512"
         height="11.377102"
         width="7.9374995"
         id="rect4231"
         style="display:inline;opacity:1;fill:#232323;fill-opacity:1;fill-rule:evenodd;stroke:none;stroke-width:1.05833328;stroke-linecap:butt;stroke-linejoin:bevel;stroke-miterlimit:4;stroke-dasharray:none;stroke-dashoffset:0;stroke-opacity:1;paint-order:markers stroke fill" />
      <g
         id="text4237"
         style="font-style:normal;font-variant:normal;font-weight:900;font-stretch:normal;font-size:3.39087534px;line-height:125%;font-family:Overpass;-inkscape-font-specification:'Overpass, Heavy';text-align:center;letter-spacing:0px;word-spacing:0px;writing-mode:lr-tb;text-anchor:middle;display:inline;fill:#e1e1e1;fill-opacity:1;stroke:none;stroke-width:0.26458332px;stroke-linecap:butt;stroke-linejoin:miter;stroke-opacity:1"
         transform="translate(0,196.45833)">
        <path
           inkscape:connector-curvature="0"
           id="path4244"
           d="m 5.9082475,50.773551 0,1.878545 -0.5154131,0 0,-1.878545 -0.6815659,0 0,-0.495068 1.8785449,0 0,0.495068 -0.6815659,0 z" />
        <path
           inkscape:connector-curvature="0"
           id="path4246"
           d="m 6.9434182,52.652096 0,-2.373613 1.1562885,0 q 0.4272503,0 0.6171393,0.213625 0.1932799,0.213625 0.1932799,0.552713 0,0.210234 -0.1152898,0.410296 -0.1152897,0.200061 -0.3153514,0.281442 l 0.4442047,0.915537 -0.5764488,0 -0.4306412,-0.837546 -0.4577682,0 0,0.837546 -0.515413,0 z m 0.515413,-1.325832 0.6476572,0 q 0.2678792,0 0.2678792,-0.281443 0,-0.118681 -0.064427,-0.196671 -0.061036,-0.08138 -0.2034525,-0.08138 l -0.6476572,0 0,0.559495 z" />
        <path
           inkscape:connector-curvature="0"
           id="path4248"
           d="m 10.237654,52.692786 q -0.2644887,0 -0.4713321,-0.101726 -0.2068434,-0.105117 -0.3289149,-0.281443 -0.1220715,-0.176325 -0.1864981,-0.38995 -0.061036,-0.213625 -0.061036,-0.454378 0,-0.223797 0.064427,-0.434032 0.064427,-0.213625 0.1864981,-0.393341 0.1254624,-0.179717 0.3323058,-0.288225 0.2068434,-0.111898 0.4645502,-0.111898 0.315351,0 0.515413,0.145807 0.203452,0.145808 0.359432,0.396733 l -0.450986,0.254315 q -0.189889,-0.301788 -0.423859,-0.301788 -0.183108,0 -0.3051791,0.122072 -0.1220715,0.118681 -0.1661529,0.274661 -0.040691,0.15598 -0.040691,0.335696 0,0.30857 0.1254624,0.522195 0.1288533,0.210234 0.3865606,0.210234 0.145807,0 0.254315,-0.09494 0.108508,-0.09494 0.108508,-0.220407 l 0,-0.01695 -0.38656,0 0,-0.491677 0.915537,0 0,0.372996 q 0,0.444205 -0.250925,0.69513 -0.247534,0.250924 -0.640875,0.250924 z" />
      </g>
    </g>
    <g
       id="g4692"
       transform="translate(7.5455852e-7,-19.314574)">
      <rect
         style="opacity:1;fill:#232323;fill-opacity:1;fill-rule:evenodd;stroke:none;stroke-width:1.05833328;stroke-linecap:butt;stroke-linejoin:bevel;stroke-miterlimit:4;stroke-dasharray:none;stroke-dashoffset:0;stroke-opacity:1;paint-order:markers stroke fill"
         id="rect934"
         width="7.9374995"
         height="11.377102"
         x="3.9687512"
         y="259.16458"
         rx="0.79374683"
         ry="0.79374683" />
      <g
         transform="translate(1.3656969e-7,199.10732)"
         id="text4200"
         style="font-style:normal;font-variant:normal;font-weight:900;font-stretch:normal;font-size:3.56722832px;line-height:125%;font-family:Overpass;-inkscape-font-specification:'Overpass, Heavy';text-align:center;letter-spacing:0px;word-spacing:0px;writing-mode:lr-tb;text-anchor:middle;display:inline;fill:#e1e1e1;fill-opacity:1;stroke:none;stroke-width:0.26458332px;stroke-linecap:butt;stroke-linejoin:miter;stroke-opacity:1">
        <path
           inkscape:connector-curvature="0"
           id="path4207"
           d="m 5.8647739,63.542826 q -0.2782438,0 -0.4958447,-0.107017 -0.2176009,-0.110584 -0.3460211,-0.29608 -0.1284203,-0.185496 -0.1961976,-0.410231 -0.06421,-0.224736 -0.06421,-0.478009 0,-0.235437 0.067777,-0.456605 0.067777,-0.224735 0.1961976,-0.413799 0.1319874,-0.189063 0.3495884,-0.303214 0.2176009,-0.117718 0.4887102,-0.117718 0.3317523,0 0.5422187,0.15339 0.2140337,0.153391 0.3781262,0.417366 l -0.4744413,0.267542 q -0.1997648,-0.317483 -0.4459036,-0.317483 -0.1926303,0 -0.3210505,0.12842 -0.1284202,0.124853 -0.1747942,0.288946 -0.042807,0.164092 -0.042807,0.353155 0,0.324618 0.1319874,0.549353 0.1355547,0.221168 0.406664,0.221168 0.1533909,0 0.2675422,-0.09988 0.1141513,-0.09988 0.1141513,-0.23187 l 0,-0.01784 -0.4066641,0 0,-0.517248 0.9631517,0 0,0.392395 q 0,0.467307 -0.2639749,0.731282 -0.2604077,0.263975 -0.6742062,0.263975 z" />
        <path
           inkscape:connector-curvature="0"
           id="path4209"
           d="m 8.7479304,63.500019 -0.1854959,-0.485143 -0.938181,0 -0.1854959,0.485143 -0.5921599,0 0.984555,-2.49706 0.5208154,0 0.9881222,2.49706 -0.5921599,0 z M 8.3805059,62.515464 8.1664722,61.976813 q -0.049941,-0.121286 -0.074912,-0.210467 -0.014269,0.06064 -0.074912,0.210467 l -0.2140337,0.538651 0.577891,0 z" />
        <path
           inkscape:connector-curvature="0"
           id="path4211"
           d="m 10.395488,61.523775 0,1.976244 -0.5422185,0 0,-1.976244 -0.7170129,0 0,-0.520816 1.9762444,0 0,0.520816 -0.717013,0 z" />
      </g>
    </g>
    <g
       id="g4685"
       transform="translate(1.7582328e-6,-19.314551)">
      <rect
         ry="0.79374683"
         rx="0.79374683"
         y="272.39377"
         x="3.9687502"
         height="11.377047"
         width="7.9374995"
         id="rect875"
         style="opacity:1;fill:#232323;fill-opacity:1;fill-rule:evenodd;stroke:none;stroke-width:1.05833328;stroke-linecap:butt;stroke-linejoin:bevel;stroke-miterlimit:4;stroke-dasharray:none;stroke-dashoffset:0;stroke-opacity:1;paint-order:markers stroke fill" />
      <g
         id="text4250"
         style="font-style:normal;font-variant:normal;font-weight:900;font-stretch:normal;font-size:3.56722832px;line-height:125%;font-family:Overpass;-inkscape-font-specification:'Overpass, Heavy';text-align:center;letter-spacing:0px;word-spacing:0px;writing-mode:lr-tb;text-anchor:middle;display:inline;fill:#e1e1e1;fill-opacity:1;stroke:none;stroke-width:0.26458332px;stroke-linecap:butt;stroke-linejoin:miter;stroke-opacity:1"
         transform="translate(0,196.45833)">
        <path
           inkscape:connector-curvature="0"
           id="path4257"
           d="m 5.9834794,77.355977 0,1.976245 -0.5422187,0 0,-1.976245 -0.7170129,0 0,-0.520815 1.9762445,0 0,0.520815 -0.7170129,0 z" />
        <path
           inkscape:connector-curvature="0"
           id="path4259"
           d="m 8.022875,79.375029 q -0.2782438,0 -0.4958447,-0.107017 -0.217601,-0.110584 -0.3460212,-0.29608 -0.1284202,-0.185496 -0.1961975,-0.410231 -0.06421,-0.224736 -0.06421,-0.478009 0,-0.235437 0.067777,-0.456605 0.067777,-0.224736 0.1961975,-0.413799 0.1319875,-0.189063 0.3495884,-0.303214 0.2176009,-0.117719 0.4887103,-0.117719 0.3317522,0 0.5422187,0.153391 0.2140337,0.153391 0.3781262,0.417366 L 8.4687785,77.630654 Q 8.2690137,77.313171 8.022875,77.313171 q -0.1926303,0 -0.3210506,0.12842 -0.1284202,0.124853 -0.1747941,0.288945 -0.042807,0.164093 -0.042807,0.353156 0,0.324618 0.1319875,0.549353 0.1355546,0.221168 0.406664,0.221168 0.1533908,0 0.2675421,-0.09988 0.1141513,-0.09988 0.1141513,-0.23187 l 0,-0.01784 -0.406664,0 0,-0.517248 0.9631516,0 0,0.392395 q 0,0.467307 -0.2639749,0.731282 -0.2604076,0.263975 -0.6742061,0.263975 z" />
        <path
           inkscape:connector-curvature="0"
           id="path4261"
           d="m 9.3716772,79.332222 0,-2.49706 0.5422187,0 0,1.972677 1.1985891,0 0,0.524383 -1.7408078,0 z" />
      </g>
    </g>
    <rect
       transform="translate(0,196.45833)"
       style="display:inline;opacity:1;fill:#fe9500;fill-opacity:1;stroke:none;stroke-width:1;stroke-miterlimit:4;stroke-dasharray:none;stroke-opacity:1"
       id="rect5021"
       width="3.9687507"
       height="3.9687512"
       x="1.984375"
       y="2.1116637e-06" />
    <g
       transform="translate(0,196.45833)"
       style="font-style:normal;font-variant:normal;font-weight:bold;font-stretch:normal;font-size:3.57984519px;line-height:125%;font-family:'Cooper Hewitt';-inkscape-font-specification:'Cooper Hewitt, Bold';text-align:center;letter-spacing:0px;word-spacing:0px;writing-mode:lr-tb;text-anchor:middle;display:inline;fill:#000000;fill-opacity:1;stroke:none;stroke-width:0.26458332px;stroke-linecap:butt;stroke-linejoin:miter;stroke-opacity:1"
       id="text6069">
      <path
         d="m 2.6323492,3.3930466 0,-2.86387613 0.5656156,0 0,2.86387613 -0.5656156,0 z"
         style="font-style:normal;font-variant:normal;font-weight:bold;font-stretch:normal;font-size:3.57984519px;font-family:'Cooper Hewitt';-inkscape-font-specification:'Cooper Hewitt, Bold';text-align:center;writing-mode:lr-tb;text-anchor:middle;stroke-width:0.26458332px"
         id="path6074"
         inkscape:connector-curvature="0" />
      <path
         d="m 3.5617665,1.4957287 0.5620357,0 0,1.1920884 q 0,0.2649086 0.2505892,0.2649086 0.2112109,0 0.3329256,-0.1789923 l 0,-1.2780047 0.5656155,0 0,1.3603411 0.032219,0.5369768 -0.5047582,0 -0.042958,-0.2398496 q -0.207631,0.2863876 -0.6085736,0.2863876 -0.3042869,0 -0.4474807,-0.1861519 Q 3.561767,3.0672807 3.561767,2.7808931 l 0,-1.2851644 z"
         style="font-style:normal;font-variant:normal;font-weight:bold;font-stretch:normal;font-size:3.57984519px;font-family:'Cooper Hewitt';-inkscape-font-specification:'Cooper Hewitt, Bold';text-align:center;writing-mode:lr-tb;text-anchor:middle;stroke-width:0.26458332px"
         id="path6076"
         inkscape:connector-curvature="0" />
    </g>
  </g>
  <g
     inkscape:groupmode="layer"
     id="layer2"
     inkscape:label="text"
     style="display:inline"
     transform="translate(-1.984375,-1.4223331e-5)">
    <text
       xml:space="preserve"
       style="font-style:normal;font-variant:normal;font-weight:bold;font-stretch:normal;font-size:5.33291245px;line-height:125%;font-family:'Cooper Hewitt';-inkscape-font-specification:'Cooper Hewitt, Bold';text-align:center;letter-spacing:0px;word-spacing:0px;writing-mode:lr-tb;text-anchor:middle;fill:#000000;fill-opacity:1;stroke:none;stroke-width:0.26458332px;stroke-linecap:butt;stroke-linejoin:miter;stroke-opacity:1"
       x="7.933814"
       y="94.702698"
       id="text880"
       sodipodi:linespacing="125%"><tspan
         sodipodi:role="line"
         id="tspan878"
         x="7.933814"
         y="94.702698"
         style="font-style:normal;font-variant:normal;font-weight:bold;font-stretch:normal;font-size:5.33291245px;font-family:'Cooper Hewitt';-inkscape-font-specification:'Cooper Hewitt, Bold';text-align:center;writing-mode:lr-tb;text-anchor:middle;stroke-width:0.26458332px">btn</tspan></text>
    <text
       xml:space="preserve"
       style="font-style:normal;font-variant:normal;font-weight:900;font-stretch:normal;font-size:3.56722832px;line-height:125%;font-family:Overpass;-inkscape-font-specification:'Overpass, Heavy';text-align:center;letter-spacing:0px;word-spacing:0px;writing-mode:lr-tb;text-anchor:middle;fill:#e1e1e1;fill-opacity:1;stroke:none;stroke-width:0.26458332px;stroke-linecap:butt;stroke-linejoin:miter;stroke-opacity:1"
       x="7.9005475"
       y="46.834438"
       id="text851"
       sodipodi:linespacing="125%"><tspan
         sodipodi:role="line"
         id="tspan4196"
         x="7.9005475"
         y="46.834438">GAT</tspan></text>
    <text
       sodipodi:linespacing="125%"
       id="text4213"
       y="33.29686"
       x="7.937501"
       style="font-style:normal;font-variant:normal;font-weight:900;font-stretch:normal;font-size:3.39087534px;line-height:125%;font-family:Overpass;-inkscape-font-specification:'Overpass, Heavy';text-align:center;letter-spacing:0px;word-spacing:0px;writing-mode:lr-tb;text-anchor:middle;fill:#e1e1e1;fill-opacity:1;stroke:none;stroke-width:0.26458332px;stroke-linecap:butt;stroke-linejoin:miter;stroke-opacity:1"
       xml:space="preserve"><tspan
         y="33.29686"
         x="7.937501"
         id="tspan4215"
         sodipodi:role="line">TRG</tspan></text>
    <text
       sodipodi:linespacing="125%"
       id="text4227"
       y="59.98605"
       x="7.8779006"
       style="font-style:normal;font-variant:normal;font-weight:900;font-stretch:normal;font-size:3.56722832px;line-height:125%;font-family:Overpass;-inkscape-font-specification:'Overpass, Heavy';text-align:center;letter-spacing:0px;word-spacing:0px;writing-mode:lr-tb;text-anchor:middle;fill:#e1e1e1;fill-opacity:1;stroke:none;stroke-width:0.26458332px;stroke-linecap:butt;stroke-linejoin:miter;stroke-opacity:1"
       xml:space="preserve"><tspan
         y="59.98605"
         x="7.8779006"
         id="tspan4229"
         sodipodi:role="line">TGL</tspan></text>
    <text
       xml:space="preserve"
       style="font-style:normal;font-variant:normal;font-weight:900;font-stretch:normal;font-size:2.01570797px;line-height:125%;font-family:Overpass;-inkscape-font-specification:'Overpass, Heavy';text-align:center;letter-spacing:0px;word-spacing:0px;writing-mode:lr-tb;text-anchor:middle;fill:#232323;fill-opacity:1;stroke:none;stroke-width:0.26458332px;stroke-linecap:butt;stroke-linejoin:miter;stroke-opacity:1"
       x="7.9815092"
       y="18.368525"
       id="text4263"
       sodipodi:linespacing="125%"><tspan
         sodipodi:role="line"
         id="tspan4265"
         x="7.9815092"
         y="18.368525">TRG IN</tspan></text>
    <text
       xml:space="preserve"
       style="font-style:normal;font-variant:normal;font-weight:900;font-stretch:normal;font-size:1.97112656px;line-height:125%;font-family:Overpass;-inkscape-font-specification:'Overpass, Heavy';text-align:center;letter-spacing:0px;word-spacing:0px;writing-mode:lr-tb;text-anchor:middle;fill:#e1e1e1;fill-opacity:1;stroke:none;stroke-width:0.26458332px;stroke-linecap:butt;stroke-linejoin:miter;stroke-opacity:1"
       x="7.9170728"
       y="72.472771"
       id="text4210"
       sodipodi:linespacing="125%"><tspan
         sodipodi:role="line"
         id="tspan4212"
         x="7.9170728"
         y="72.472771">CONST</tspan></text>
    <text
       sodipodi:linespacing="125%"
       id="text4574"
       y="75.13752"
       x="8.9816446"
       style="font-style:normal;font-variant:normal;font-weight:900;font-stretch:normal;font-size:2.25594187px;line-height:125%;font-family:Overpass;-inkscape-font-specification:'Overpass, Heavy';text-align:center;letter-spacing:0px;word-spacing:0px;writing-mode:lr-tb;text-anchor:middle;fill:#e1e1e1;fill-opacity:1;stroke:none;stroke-width:0.26458332px;stroke-linecap:butt;stroke-linejoin:miter;stroke-opacity:1"
       xml:space="preserve"><tspan
         y="75.13752"
         x="8.9816446"
         id="tspan4576"
         sodipodi:role="line">1V</tspan></text>
    <text
       xml:space="preserve"
       style="font-style:normal;font-variant:normal;font-weight:900;font-stretch:normal;font-size:2.26836252px;line-height:125%;font-family:Overpass;-inkscape-font-specification:'Overpass, Heavy';text-align:center;letter-spacing:0px;word-spacing:0px;writing-mode:lr-tb;text-anchor:middle;fill:#e1e1e1;fill-opacity:1;stroke:none;stroke-width:0.26458332px;stroke-linecap:butt;stroke-linejoin:miter;stroke-opacity:1"
       x="8.9863205"
       y="77.78788"
       id="text4586"
       sodipodi:linespacing="125%"><tspan
         sodipodi:role="line"
         id="tspan4588"
         x="8.9863205"
         y="77.78788">5V</tspan></text>
    <text
       sodipodi:linespacing="125%"
       id="text4590"
       y="80.433708"
       x="8.9977655"
       style="font-style:normal;font-variant:normal;font-weight:900;font-stretch:normal;font-size:2.26885533px;line-height:125%;font-family:Overpass;-inkscape-font-specification:'Overpass, Heavy';text-align:center;letter-spacing:0px;word-spacing:0px;writing-mode:lr-tb;text-anchor:middle;fill:#e1e1e1;fill-opacity:1;stroke:none;stroke-width:0.26458332px;stroke-linecap:butt;stroke-linejoin:miter;stroke-opacity:1"
       xml:space="preserve"><tspan
         y="80.433708"
         x="8.9977655"
         id="tspan4592"
         sodipodi:role="line">10V</tspan></text>
    <text
       sodipodi:linespacing="125%"
       id="text5015"
       y="3.3930466"
       x="3.9527807"
       style="font-style:normal;font-variant:normal;font-weight:bold;font-stretch:normal;font-size:3.57984519px;line-height:125%;font-family:'Cooper Hewitt';-inkscape-font-specification:'Cooper Hewitt, Bold';text-align:center;letter-spacing:0px;word-spacing:0px;writing-mode:lr-tb;text-anchor:middle;fill:#000000;fill-opacity:1;stroke:none;stroke-width:0.26458332px;stroke-linecap:butt;stroke-linejoin:miter;stroke-opacity:1"
       xml:space="preserve"><tspan
         style="font-style:normal;font-variant:normal;font-weight:bold;font-stretch:normal;font-size:3.57984519px;font-family:'Cooper Hewitt';-inkscape-font-specification:'Cooper Hewitt, Bold';text-align:center;writing-mode:lr-tb;text-anchor:middle;stroke-width:0.26458332px"
         y="3.3930466"
         x="3.9527807"
         id="tspan5017"
         sodipodi:role="line">lu</tspan></text>
  </g>
  <g
     inkscape:groupmode="layer"
     id="layer4"
     inkscape:label="guides"
     style="display:none;opacity:1"
     sodipodi:insensitive="true">
    <ellipse
       style="fill:#ff2a2a;fill-opacity:1;stroke:none;stroke-width:2;stroke-miterlimit:4;stroke-dasharray:none;stroke-opacity:1"
       id="path4295"
       cx="3.6380215"
       cy="74.41407"
       rx="0.85989606"
       ry="0.85989618" />
    <ellipse
       ry="0.85989618"
       rx="0.85989606"
       cy="76.993752"
       cx="3.9687505"
       id="ellipse4303"
       style="fill:#ff2a2a;fill-opacity:1;stroke:none;stroke-width:2;stroke-miterlimit:4;stroke-dasharray:none;stroke-opacity:1" />
    <ellipse
       style="fill:#ff2a2a;fill-opacity:1;stroke:none;stroke-width:2;stroke-miterlimit:4;stroke-dasharray:none;stroke-opacity:1"
       id="ellipse4307"
       cx="3.9687505"
       cy="79.639587"
       rx="0.85989606"
       ry="0.85989618" />
    <ellipse
       ry="0.33072919"
       rx="0.33072916"
       cy="74.149483"
       cx="3.1088548"
       id="ellipse4492"
       style="fill:#00ff00;fill-opacity:1;stroke:none;stroke-width:2;stroke-miterlimit:4;stroke-dasharray:none;stroke-opacity:1" />
    <ellipse
       style="fill:#00ff00;fill-opacity:1;stroke:none;stroke-width:2;stroke-miterlimit:4;stroke-dasharray:none;stroke-opacity:1"
       id="ellipse4506"
       cx="3.1088548"
       cy="76.530731"
       rx="0.33072916"
       ry="0.33072919" />
    <ellipse
       style="fill:#ff2a2a;fill-opacity:1;stroke:none;stroke-width:2;stroke-miterlimit:4;stroke-dasharray:none;stroke-opacity:1"
       id="ellipse4544"
       cx="5.953126"
       cy="9.7895737"
       rx="3.9687505"
       ry="3.968751" />
    <ellipse
       ry="1.9843755"
       rx="1.9843752"
       cy="1.9843636"
       cx="5.953126"
       id="ellipse4546"
       style="fill:#ff2a2a;fill-opacity:1;stroke:none;stroke-width:2;stroke-miterlimit:4;stroke-dasharray:none;stroke-opacity:1" />
    <ellipse
       style="fill:#ff2a2a;fill-opacity:1;stroke:none;stroke-width:2;stroke-miterlimit:4;stroke-dasharray:none;stroke-opacity:1"
       id="ellipse4905"
       cx="5.953126"
       cy="98.557304"
       rx="1.9843752"
       ry="1.9843755" />
  </g>
</svg>
